SplineFontDB: 1.0
FontName: Untitled1
FullName: Untitled1
FamilyName: Untitled1
Weight: Medium
Copyright: Created by KANOU Hiroki with FontForge 1.0 (http://fontforge.sf.net)
Comments: 2004-6-14: Created.
Version: 001.000
ItalicAngle: 0
UnderlinePosition: -100
UnderlineWidth: 50
Ascent: 819
Descent: 205
NeedsXUIDChange: 1
XUID: [1021 314 1764104691 9158197]
OS2WinAscent: 0
OS2WinAOffset: 1
OS2WinDescent: 0
OS2WinDOffset: 1
Encoding: unicode
UnicodeInterp: none
DisplaySize: -24
AntiAlias: 1
FitToEm: 1
WinInfo: 912 16 12
BeginChars: 65541 141
StartChar: currency
Encoding: 164 164 0
Width: 1024
Flags: HW
Fore
285 353 m 0
 285 234 379 141 497 141 c 0
 615 141 710 235 710 353 c 0
 710 470 614 565 497 565 c 0
 379 565 285 471 285 353 c 0
199 352 m 0
 199 456 238 500 256 532 c 1
 140 649 l 1
 204 714 l 1
 322 597 l 1
 352 613 398 650 497 650 c 0
 599 650 645 611 676 594 c 1
 795 715 l 1
 861 648 l 1
 743 530 l 1
 760 499 796 452 795 352 c 0
 795 253 756 206 739 176 c 1
 860 56 l 1
 796 -7 l 1
 677 111 l 1
 646 93 599 55 497 54 c 0
 396 55 351 92 321 109 c 1
 204 -8 l 1
 139 59 l 1
 255 173 l 1
 238 204 200 248 199 352 c 0
EndSplineSet
EndChar
StartChar: mu
Encoding: 181 181 1
Width: 512
Flags: HW
Fore
370 357 m 1
 368 230 434 142 470 137 c 1
 470 54 l 1
 436 51 377 98 354 178 c 1
 321 113 287 69 229 69 c 8
 183.449 69 157 87 131 127 c 1
 131 28 l 2
 131 -29 128 -98 121 -143 c 1
 42 -143 l 1
 55 -49 58 20 58 40 c 2
 58 524 l 1
 131 524 l 1
 131 332 l 2
 131 207 174 145 217 145 c 0
 254 145 295 174 295 264 c 2
 295 524 l 1
 370 524 l 1
 370 357 l 1
EndSplineSet
EndChar
StartChar: cedilla
Encoding: 184 184 2
Width: 512
Flags: HW
Fore
222.459 14 m 1
 264.297 14 l 1
 264.297 14 294.172 -16.4735 317.791 -20.1475 c 0
 351.719 -25.4248 381 -50 381 -80 c 0
 381 -112 331.688 -151.924 271.354 -152 c 1
 234.072 -157.398 186 -132 159.709 -97.0154 c 1
 213.993 -62.7309 l 1
 213.993 -62.7309 245.246 -95.6304 271.148 -97.002 c 16
 290 -98 310 -96 312 -80 c 8
 313.712 -66.3066 302.06 -61.9168 286 -56 c 0
 248 -42 230 -22 222.459 14 c 1
EndSplineSet
EndChar
StartChar: AE
Encoding: 198 198 3
Width: 896
Flags: HW
Fore
439 586 m 1
 423 586 l 1
 275 300 l 1
 439 300 l 1
 439 586 l 1
439 210 m 1
 228 210 l 1
 115 -12 l 1
 20 -12 l 1
 413 750 l 1
 857 750 l 1
 857 660 l 1
 528 660 l 1
 528 432 l 1
 801 432 l 1
 801 342 l 1
 528 342 l 1
 528 78 l 1
 857 78 l 1
 857 -12 l 1
 439 -12 l 1
 439 210 l 1
EndSplineSet
EndChar
StartChar: Ccedilla
Encoding: 199 199 4
Width: 512
Flags: HW
Fore
229.124 -7.70117 m 1
 170.557 1.55859 121.682 38.7923 82.5 104 c 0
 36.8333 180 14 271.333 14 378 c 0
 14 478 36.8333 566 82.5 642 c 0
 128.167 718 187 756 259 756 c 0
 316.333 756 367.333 737 412 699 c 0
 456.487 661.153 483.45 593.869 492.886 497.175 c 1
 397 496 l 1
 390.333 571.333 374.5 620 349.5 642 c 0
 324.5 664 294.333 675 259 675 c 0
 218.333 675 182.667 649.333 152 598 c 0
 121.333 546.667 106 473 106 377 c 0
 106 279 121.333 203.5 152 150.5 c 0
 182.667 97.5 218.333 71 259 71 c 0
 298.333 71 331.833 83.8333 359.5 109.5 c 0
 387.167 135.167 403.667 189.667 409 273 c 1
 505 273 l 1
 499.667 176.333 475.333 105 432 59 c 0
 395.375 20.121 348.511 -2.32777 291.407 -8.34644 c 1
 299.88 -13.98 309.245 -18.8181 317.791 -20.1475 c 0
 351.719 -25.4248 381 -50 381 -80 c 0
 381 -112 331.688 -151.924 271.354 -152 c 1
 234.072 -157.398 186 -132 159.709 -97.0154 c 1
 213.993 -62.7309 l 1
 213.993 -62.7309 245.246 -95.6304 271.148 -97.002 c 16
 290 -98 310 -96 312 -80 c 8
 313.712 -66.3066 302.06 -61.9168 286 -56 c 0
 256.428 -45.105 238.968 -30.5764 229.124 -7.70117 c 1
EndSplineSet
EndChar
StartChar: Thorn
Encoding: 222 222 5
Width: 512
Flags: HW
Fore
152 -12 m 1
 62 -12 l 1
 62 766 l 1
 152 766 l 1
 152 595 l 1
 213 595 l 2
 382 595 467 531 467 391 c 0
 467 252 382 187 213 187 c 2
 152 187 l 1
 152 -12 l 1
376 391 m 0
 376 464 336 506 213 506 c 2
 152 506 l 1
 152 278 l 1
 213 278 l 2
 339 278 376 316 376 391 c 0
EndSplineSet
EndChar
StartChar: germandbls
Encoding: 223 223 6
Width: 512
Flags: HW
Fore
236 756 m 0
 343 756 427 666 427 560 c 0
 427 493 382 427 327 413 c 1
 396 396 473 300 473 210 c 0
 473 74 404 0 236 -2 c 1
 177 0 l 1
 177 85 l 1
 236 79 l 1
 334 79 381 123 381 209 c 0
 381 303 298 378 203 378 c 1
 203 442 l 1
 283 442 335 492 335 561 c 0
 335 627 297 675 236 675 c 0
 157 675 125 638 125 544 c 1
 125 0 l 1
 39 0 l 1
 39 544 l 1
 39 723 162 756 236 756 c 0
EndSplineSet
EndChar
StartChar: ae
Encoding: 230 230 7
Width: 832
Flags: HW
Fore
563 451 m 0
 502 451 457 407 439 340 c 1
 695 340 l 1
 680 415 641 451 563 451 c 0
406 450 m 1
 447 501 496 532 563 532 c 0
 712 532 795 433 795 266 c 1
 430 266 l 1
 430 148 481 71 567 71 c 0
 655 71 678 91 703 172 c 1
 799 172 l 1
 774 53 697 -10 567 -10 c 0
 490 -10 431 32 389 97 c 1
 351 45 272 -12 197 -10 c 1
 96 -10 33 46 33 135 c 0
 33 261 127 316 344 358 c 1
 344 432 313 471 237 471 c 0
 183 471 150 442 139 385 c 1
 51 385 l 1
 62 474 135 532 237 532 c 0
 317 532 375 503 406 450 c 1
344 161 m 1
 344 207 342 251 344 295 c 1
 156 254 125 224 125 136 c 0
 125 88 149 61 198 61 c 0
 277 63 313 98 344 161 c 1
EndSplineSet
EndChar
StartChar: ccedilla
Encoding: 231 231 8
Width: 512
Flags: HW
Fore
290.832 -7.96167 m 1
 299.455 -13.7586 309.051 -18.7879 317.791 -20.1475 c 0
 351.719 -25.4248 381 -50 381 -80 c 0
 381 -112 331.688 -151.924 271.354 -152 c 1
 234.072 -157.398 186 -132 159.709 -97.0154 c 1
 213.993 -62.7309 l 1
 213.993 -62.7309 245.246 -95.6304 271.148 -97.002 c 16
 290 -98 310 -96 312 -80 c 8
 313.712 -66.3066 302.06 -61.9168 286 -56 c 0
 256.965 -45.303 239.606 -31.1032 229.668 -8.93994 c 1
 172.697 -3.43108 123.974 23.5489 83.5 72 c 0
 37.8333 126.667 15 189.333 15 260 c 0
 15 332 37.5 395.333 82.5 450 c 0
 127.5 504.667 182.667 532 248 532 c 0
 318.667 532 374.667 513 416 475 c 0
 457.333 437 480.63 391.038 485.963 336.371 c 1
 394 336 l 1
 386 378 370.167 407.667 346.5 425 c 0
 322.833 442.333 290 451 248 451 c 0
 212.667 451 180.333 436 151 406 c 0
 121.667 376 107 327 107 259 c 0
 107 197 122.333 150.167 153 118.5 c 0
 183.667 86.8333 216.667 71 252 71 c 0
 287.333 71 316.167 76.1667 338.5 86.5 c 0
 360.833 96.8333 379.333 125.333 394 172 c 1
 490 172 l 1
 480.667 117.333 455.333 73.3333 414 40 c 0
 381.012 13.3969 339.956 -2.59031 290.832 -7.96167 c 1
EndSplineSet
EndChar
StartChar: eth
Encoding: 240 240 9
Width: 512
Flags: HW
Fore
236.544 78.8477 m 0
 320.512 78.8477 362.496 137.216 370.688 280.576 c 1
 355.328 359.424 314.368 397.312 227.328 397.312 c 0
 154.624 397.312 113.664 339.968 113.664 239.616 c 0
 113.664 176.128 122.88 78.8477 236.544 78.8477 c 0
353.852 669.972 m 1
 451.584 705.536 l 1
 496.64 655.36 l 1
 393.569 616.708 l 1
 437.296 546.784 462.848 460.8 462.848 375.808 c 1
 462.848 264.192 451.584 112.64 402.432 69.6318 c 0
 339.968 14.3359 316.416 0 236.544 -2.04785 c 0
 109.568 -5.12012 21.5039 107.52 21.5039 239.616 c 0
 21.5039 403.456 137.216 478.208 227.328 478.208 c 0
 287.744 478.208 319.488 479.232 372.736 419.84 c 1
 363.52 490.496 347.335 546.044 321.032 589.508 c 1
 128 517.12 l 1
 82.9443 571.392 l 1
 278.346 642.496 l 1
 251.278 667.968 218.112 688.128 178.176 703.488 c 1
 232.448 754.688 l 1
 278.528 738.304 319.487 708.633 353.852 669.972 c 1
EndSplineSet
EndChar
StartChar: thorn
Encoding: 254 254 10
Width: 512
Flags: HW
Fore
68 -116 m 1
 68 716 l 1
 159 716 l 1
 159 468 l 1
 198 511 238 532 284 532 c 0
 394 532 478 428 478 286 c 0
 478 150 397 51 283 46 c 1
 236 46 195 58 159 82 c 1
 159 -116 l 1
 68 -116 l 1
283 127 m 1
 350 133 386 187 386 286 c 0
 386 384 344 451 283 451 c 0
 244 451 215 437 195 409 c 0
 175 381 163 358 159 340 c 1
 159 193 l 1
 173 150 215 127 283 127 c 1
EndSplineSet
EndChar
StartChar: dotlessi
Encoding: 305 305 11
Width: 512
Flags: HW
Fore
299 -12 m 1
 213 -12 l 1
 213 534 l 1
 299 534 l 1
 299 -12 l 1
EndSplineSet
EndChar
StartChar: Lslash
Encoding: 321 321 12
Width: 512
Flags: HW
Fore
94 -12 m 1
 94 437 l 1
 41 415 l 1
 -4 471 l 1
 94 512 l 1
 94 750 l 1
 180 750 l 1
 180 548 l 1
 340 614 l 1
 385 561 l 1
 180 474 l 1
 180 78 l 1
 486 78 l 1
 486 -12 l 1
 94 -12 l 1
EndSplineSet
EndChar
StartChar: lslash
Encoding: 322 322 13
Width: 512
Flags: HW
Fore
287 554 m 1
 414 607 l 1
 459 554 l 1
 287 481 l 1
 287 -12 l 1
 201 -12 l 1
 201 444 l 1
 115 408 l 1
 70 464 l 1
 201 518 l 1
 201 750 l 1
 287 750 l 1
 287 554 l 1
EndSplineSet
EndChar
StartChar: eng
Encoding: 331 331 14
Width: 512
Flags: HW
Fore
377 -6 m 2
 378 339 l 2
 378.127 383.666 369.667 413.5 353 428.5 c 128
 336.333 443.5 311 451 277 451 c 0
 249.667 451 221.667 435.833 193 405.5 c 128
 164.333 375.167 150 326.333 150 259 c 2
 150 88 l 1
 66 88 l 1
 66 534 l 1
 150 534 l 1
 150 449 l 1
 198.667 504.333 247 532 295 532 c 0
 331 532 368.167 519 406.5 493 c 128
 444.833 467 464.217 415.666 464 339 c 2
 463 -6 l 2
 462.783 -82.667 427.667 -135.5 397 -164.5 c 128
 366.333 -193.5 300.5 -208 251.1 -208 c 0
 200.833 -208 162.5 -194.5 126.1 -167.5 c 1
 94 -140 68.5 -108 68.5 -50 c 1
 155.5 -50 l 1
 155.5 -78.667 162.217 -96.833 175.65 -104.5 c 128
 189.083 -112.167 206 -129 251.1 -129 c 0
 293 -129 323 -117 340.55 -96.5 c 0
 357.564 -76.625 376.855 -45.333 377 -6 c 2
EndSplineSet
EndChar
StartChar: OE
Encoding: 338 338 15
Width: 896
Flags: HW
Fore
417 80 m 9
 417 656 l 17
 314 656 147 648 147 377 c 1
 147 123 296 80 417 80 c 9
847 -12 m 1
 417 -12 l 2
 237 -12 50 46 50 378 c 1
 51 691 250 749 417 749 c 1
 847 750 l 1
 847 660 l 1
 520 660 l 1
 520 432 l 1
 791 432 l 1
 791 342 l 1
 520 342 l 1
 520 78 l 1
 847 78 l 1
 847 -12 l 1
EndSplineSet
EndChar
StartChar: oe
Encoding: 339 339 16
Width: 896
Flags: HW
Fore
617 473 m 0
 556 473 519 429 500 362 c 1
 748 362 l 1
 733 437 695 473 617 473 c 0
444 454 m 1
 482 515 542 555 617 555 c 0
 766 555 848 456 848 289 c 1
 491 289 l 1
 491 288 l 1
 491 171 547 93 621 93 c 0
 696 93 737 127 756 195 c 1
 852 195 l 1
 829 84 741 12 621 12 c 0
 549 12 487 52 447 115 c 1
 409 52 347 12 268 12 c 0
 136 12 44 134 44 289 c 0
 44 433 139 555 268 555 c 0
 342 555 405 515 444 454 c 1
403 284 m 0
 403 402 353 473 268 473 c 0
 201 473 136 401 136 288 c 0
 136 172 189 93 268 93 c 1
 346 95 403 159 403 284 c 0
EndSplineSet
EndChar
StartChar: florin
Encoding: 402 402 17
Width: 512
Flags: HW
Fore
100 331 m 1
 100 408 l 1
 209 408 l 1
 209 528 222 664 255 698 c 0
 282 725 313 744 356 744 c 0
 397 744 432 740 460 728 c 1
 460 642 l 1
 407 671 379 667 356 667 c 0
 302 667 295 542 295 408 c 1
 422 408 l 1
 422 331 l 1
 295 331 l 1
 295 211 285 -10 254 -39 c 0
 226 -65 190 -89 147 -89 c 0
 106 -89 84 -86 52 -75 c 1
 52 7 l 1
 92 -8 117 -7 147 -7 c 0
 202 -7 209 197 209 331 c 1
 100 331 l 1
EndSplineSet
EndChar
StartChar: uni0251
Encoding: 593 593 18
Width: 512
Flags: HW
Fore
364 -12 m 1
 364 27 l 1
 334.667 2.33333 299 -10 257 -10 c 1
 189.667 -7.33333 137.5 20.3333 100.5 73 c 0
 63.5 125.667 45 186 45 254 c 0
 45 342 64.5 410.333 103.5 459 c 128
 142.5 507.667 186.333 532 235 532 c 0
 275 532 318 510.667 364 468 c 1
 364 537 l 1
 450 537 l 1
 450 -12 l 1
 364 -12 l 1
237 451 m 0
 213 451 190.333 436.167 169 406.5 c 128
 147.667 376.833 137 326 137 254 c 0
 137 202 146.667 159.167 166 125.5 c 0
 185.333 91.8333 215.667 73.6667 257 71 c 1
 284.333 71 307.167 77.1667 325.5 89.5 c 0
 343.833 101.833 356.667 122.333 364 151 c 1
 364 315 l 1
 359.333 347 345.167 377.667 321.5 407 c 128
 297.833 436.333 269.667 451 237 451 c 0
EndSplineSet
EndChar
StartChar: uni025A
Encoding: 602 602 19
Width: 512
Flags: HW
Fore
186 66 m 0
 212 66 233 76 250 99 c 129
 267 122 286 196 282 238 c 1
 80 180 l 1
 80 158 91 125 117 99 c 0
 132 84 156 66 186 66 c 0
387 261 m 1
 357 253 l 1
 357 181 341 120 308 65 c 0
 276 10 241 -10 192 -10 c 0
 145 -10 104 11 69 53 c 129
 34 95 10 124 13 218 c 1
 279 294 l 1
 279 338 271 386 255 406 c 8
 235 431 215 451 189 451 c 128
 163 451 142 446 126 436 c 0
 109 425 96 397 85 350 c 1
 14 350 l 1
 30 451 81 532 189 532 c 0
 292 532 344 412 355 309 c 1
 465 336 l 1
 477 285 l 1
 399 259 444 190 485 200 c 1
 501 151 l 1
 450 131 366 185 387 261 c 1
EndSplineSet
EndChar
StartChar: uni0292
Encoding: 658 658 20
Width: 512
Flags: HW
Fore
366 411 m 0
 336.398 423.951 312 426 276 426 c 1
 311 468 434.196 606.771 447 630 c 1
 446.763 714.085 l 0
 446.763 714.085 127.333 714 50 714 c 1
 50 628 l 1
 106.667 628 350.237 627.414 350.237 627.414 c 0
 190 434 l 1
 190 368 l 1
 258 368 309.333 354.167 342 326.5 c 128
 374.667 298.833 391 259.667 391 209 c 0
 391 163 379 129.833 355 109.5 c 0
 331 89.1667 299.667 79 261 79 c 0
 224.333 79 193.833 86.6667 169.5 102 c 0
 145.167 117.333 133 153.333 133 210 c 1
 47 210 l 1
 47 138 67.3333 84.6667 108 50 c 0
 148.667 15.3333 199.667 -2 261 -2 c 0
 331 -2 385.5 19.6667 424.5 63 c 0
 463.5 106.333 483 155.333 483 210 c 0
 483 261.333 467.665 304.825 439.5 340.5 c 0
 417 369 414 390 366 411 c 0
EndSplineSet
EndChar
StartChar: breve
Encoding: 728 728 21
Width: 512
Flags: HW
Fore
141 805 m 1
 178 772 213 765 256 765 c 0
 299 765 334 772 371 805 c 1
 371 760 l 1
 330 724 296 716 256 716 c 0
 216 716 182 724 141 760 c 1
 141 805 l 1
EndSplineSet
EndChar
StartChar: alpha
Encoding: 945 945 22
Width: 576
Flags: HW
Fore
472 478 m 1
 496 466 522 470 544 432 c 1
 458.667 229.333 397.333 106.667 360 64 c 128
 322.667 21.3333 282.667 6.35783e-07 240 0 c 0
 176 0 128 18.6667 96 56 c 128
 64 93.3333 48 149.333 48 224 c 0
 48 309.333 69.3333 373.333 112 416 c 128
 154.667 458.667 208 480 272 480 c 0
 346.667 480 401.667 442.667 423 368 c 1
 466 156 l 1
 484.414 45.5176 512 80 544 80 c 1
 560 64 l 1
 549.333 21.3333 528 6.35783e-07 496 0 c 0
 453.333 0 426.667 32 416 96 c 1
 365 360 l 1
 343.667 413.333 309.333 426 256 426 c 0
 213.333 426 181.333 407.333 160 370 c 128
 138.667 332.667 121 298.667 121 224 c 0
 121 160 129 136 145 104 c 128
 161 72 197.333 66 240 66 c 0
 272 66 304 90.667 336 128 c 128
 364.889 161.703 438.484 327.188 472 478 c 1
EndSplineSet
EndChar
StartChar: beta
Encoding: 946 946 23
Width: 512
Flags: HW
Fore
64 -144 m 1
 42.6667 -144 29.3333 -136 24 -120 c 128
 18.6667 -104 21.3333 -82.6667 32 -56 c 128
 42.6667 -29.3333 53.3333 16 64 80 c 128
 74.6667 144 80 218.667 80 304 c 128
 80 389.333 88 472 104 552 c 128
 120 632 165.333 672 240 672 c 0
 304 672 349.333 658.667 376 632 c 128
 402.667 605.333 416 565.333 416 512 c 0
 416 458.667 378.667 410.667 304 368 c 1
 240 357.333 202.667 357.333 192 368 c 128
 181.333 378.667 181.333 389.333 192 400 c 128
 202.667 410.667 245.333 410.667 320 400 c 1
 426.667 368 480 304 480 208 c 0
 480 122.667 461.333 66.6667 424 40 c 128
 386.667 13.3333 344 -3.17891e-07 296 0 c 128
 248 0 197.333 16 144 48 c 1
 160 64 l 1
 213.333 42.6667 256 32 288 32 c 128
 320 32 346.667 45.3333 368 72 c 128
 389.333 98.6667 400 144 400 208 c 0
 400 293.333 368 352 304 384 c 1
 224 368 l 1
 240 368 l 1
 240 400 l 1
 224 400 l 1
 288 384 l 1
 330.667 426.667 352 469.333 352 512 c 0
 352 554.667 341.333 586.667 320 608 c 128
 298.667 629.333 269.333 640 232 640 c 128
 194.667 640 170.667 624 160 592 c 128
 149.333 560 144 474.667 144 336 c 128
 144 197.333 141.333 101.333 136 48 c 128
 130.667 -5.33333 125.333 -48 120 -80 c 128
 114.667 -112 96 -133.333 64 -144 c 1
EndSplineSet
EndChar
StartChar: gamma
Encoding: 947 947 24
Width: 480
Flags: HW
Fore
80 480 m 0
 112 480 146.667 448 184 384 c 128
 221.333 320 245.333 250.667 256 176 c 128
 266.667 101.333 272 32 272 -32 c 128
 272 -96 264 -130.667 248 -136 c 128
 232 -141.333 218.667 -141.333 208 -136 c 128
 197.333 -130.667 194.667 -96 200 -32 c 128
 205.333 32 221.333 109.333 248 200 c 128
 274.667 290.667 293.333 349.333 304 376 c 128
 314.667 402.667 328 426.667 344 448 c 128
 360 469.333 381.333 480 408 480 c 128
 434.667 480 450.667 472 456 456 c 128
 461.333 440 453.333 424 432 408 c 128
 410.667 392 381.333 362.667 344 320 c 128
 306.667 277.333 272 197.333 240 80 c 1
 218.667 208 194.667 298.667 168 352 c 128
 141.333 405.333 122.667 432 112 432 c 128
 101.333 432 90.6667 426.667 80 416 c 128
 69.3333 405.333 56 405.333 40 416 c 128
 24 426.667 21.3333 440 32 456 c 128
 42.6667 472 58.6667 480 80 480 c 0
EndSplineSet
EndChar
StartChar: delta
Encoding: 948 948 25
Width: 544
Flags: HW
Fore
304 672 m 1
 336 661.333 365.333 645.333 392 624 c 128
 418.667 602.667 432 584 432 568 c 128
 432 552 424 541.333 408 536 c 128
 392 530.667 373.333 546.667 352 584 c 128
 330.667 621.333 298.667 645.333 256 656 c 1
 224 656 202.667 653 192 647 c 128
 181.333 641 176 628 176 608 c 0
 176 576 213.333 538.667 288 496 c 1
 426.667 421.333 496 330.667 496 224 c 0
 496 138.667 477.333 80 440 48 c 128
 402.667 16 346.667 0 272 0 c 0
 208 0 154.667 16 112 48 c 128
 69.3333 80 48 138.667 48 224 c 1
 58.6667 341.333 128 426.667 256 480 c 1
 272 464 l 1
 176 400 128 314.667 128 208 c 0
 128 144 141.333 98.6667 168 72 c 128
 194.667 45.3333 234.667 32 288 32 c 0
 330.667 32 362.667 45.3333 384 72 c 128
 405.333 98.6667 416 144 416 208 c 0
 416 304 352 394.667 224 480 c 1
 170.667 522.667 144 565.333 144 608 c 0
 144 629.333 157.333 648 184 664 c 128
 210.667 680 250.667 682.667 304 672 c 1
EndSplineSet
EndChar
StartChar: epsilon
Encoding: 949 949 26
Width: 1024
Flags: HW
Fore
655.845 129 m 1
 748.933 130 l 1
 742.258 88 709.021 51 674.184 30 c 0
 627.124 1.63184 583.771 -9 506.771 -9 c 0
 419.771 -9 363.821 3 317.534 34 c 0
 270.333 66 248.57 103 251.72 139 c 0
 255.132 178 272.845 209 304.856 232 c 0
 337.869 255 351.919 267 393.356 272 c 1
 348.844 289 345.193 293 325.118 315 c 0
 305.13 338 296.143 361 298.154 384 c 0
 301.042 417 328.017 451 377.554 480 c 0
 427.179 510 477.129 522 544.629 522 c 0
 606.729 522 657.354 504 689.017 475 c 0
 721.357 445.378 735.704 412 739.492 373 c 1
 654.893 373 l 1
 654.893 373 639.816 408.584 620.392 421 c 24
 592.938 438.547 571.279 446 540.679 446 c 0
 506.479 446 479.217 443 450.092 429 c 0
 420.967 415 399.854 392 398.104 372 c 0
 396.268 351 418.431 330 452.03 314 c 0
 473.068 303 508.631 298 530.456 296 c 1
 529.906 244 l 1
 506.731 242 460.206 236 431.332 226 c 0
 385.932 210 351.657 184 348.683 150 c 0
 346.32 123 370.221 99 402.996 85 c 0
 435.858 72 469.596 69 516.596 69 c 0
 558.596 69 579.383 78 609.346 89 c 0
 628.046 97 645.445 113 655.845 129 c 1
EndSplineSet
EndChar
StartChar: zeta
Encoding: 950 950 27
Width: 528
Flags: HW
Fore
288 688 m 1
 304 672 l 1
 240 640 208 608 208 576 c 0
 208 544 216 522.667 232 512 c 128
 248 501.333 266.667 506.667 288 528 c 1
 320 544 l 1
 234.667 480 176 421.333 144 368 c 128
 112 314.667 96 256 96 192 c 0
 96 149.333 106.667 122.667 128 112 c 128
 149.333 101.333 197.333 90.6667 272 80 c 1
 368 69.3333 429.333 56 456 40 c 128
 482.667 24 496 -5.33333 496 -48 c 0
 496 -90.6667 482.667 -120 456 -136 c 128
 429.333 -152 394.667 -160 352 -160 c 0
 320 -160 290.667 -152 264 -136 c 128
 237.333 -120 221.333 -104 216 -88 c 128
 210.667 -72 216 -58.6667 232 -48 c 128
 248 -37.3333 266.667 -48 288 -80 c 128
 309.333 -112 336 -128 368 -128 c 0
 400 -128 424 -122.667 440 -112 c 128
 456 -101.333 464 -85.3333 464 -64 c 0
 464 -53.3333 456 -42.6667 440 -32 c 128
 424 -21.3333 368 -10.6667 272 0 c 0
 176 10.6667 114.667 29.3333 88 56 c 128
 61.3333 82.6667 48 122.667 48 176 c 0
 48 240 64 298.667 96 352 c 128
 128 405.333 173.333 456 232 504 c 128
 290.667 552 333.333 584 360 600 c 128
 386.667 616 405.333 618.667 416 608 c 128
 426.667 597.333 408 573.333 360 536 c 128
 312 498.667 277.333 480 256 480 c 0
 234.667 480 216 488 200 504 c 128
 184 520 176 544 176 576 c 0
 176 618.667 213.333 656 288 688 c 1
EndSplineSet
EndChar
StartChar: eta
Encoding: 951 951 28
Width: 1024
Flags: HW
Fore
561 451 m 0
 520 451 485 436 456 408 c 128
 428 378 409 342 400 297 c 1
 373 -12 l 1
 275 -12 l 1
 315.264 446 l 1
 322.263 475.333 316.759 504.667 308 534 c 1
 406 534 l 1
 417.446 492.772 414.911 474.731 414 454 c 1
 470 506 528 532 590 532 c 0
 639 532 683 518 721 491 c 128
 759 464 774 413 768 339 c 2
 723 -174 l 1
 625 -174 l 1
 670 339 l 2
 674 384 666 414 648 428 c 128
 629 444 600 451 561 451 c 0
EndSplineSet
EndChar
StartChar: theta
Encoding: 952 952 29
Width: 1024
Flags: HW
Fore
242 378 m 0
 251 478 284 566 341 642 c 128
 398 718 466 756 545 756 c 0
 625 756 686 718 730 642 c 128
 774 566 791 478 782 377 c 0
 773 271 740 180 682 104 c 128
 626 28 557 -10 477 -10 c 0
 398 -10 338 28 293 104 c 128
 250 180 233 271 242 378 c 0
679.238 359 m 1
 341.718 359 l 1
 336.316 269.762 346.802 200.645 374 150 c 128
 403 98 441 71 485 71 c 0
 530 71 572 98 610 150 c 128
 646.465 200.49 669.817 269.34 679.238 359 c 1
349.936 431 m 1
 683.996 431 l 1
 685.044 500.897 673.363 556.913 650 598 c 128
 620 649 582 675 537 675 c 0
 493 675 451 649 414 598 c 128
 382.658 557.014 361.65 501.175 349.936 431 c 1
EndSplineSet
EndChar
StartChar: iota
Encoding: 953 953 30
Width: 1024
Flags: HW
Fore
624 -122 m 1
 576 -115 521.763 -83.3252 482 -54 c 1
 422 6 388 90 400 178 c 1
 466 566 l 1
 568 566 l 1
 502.655 178 l 2
 491.655 53 580 -15 633 -15 c 1
 633 -13 624 -124 624 -122 c 1
EndSplineSet
EndChar
StartChar: kappa
Encoding: 954 954 31
Width: 448
Flags: HW
Fore
80 480 m 0
 101.333 480 114.667 450.667 120 392 c 128
 125.333 333.333 125.333 266.667 120 192 c 128
 114.667 117.333 109.333 66.6667 104 40 c 128
 98.6667 13.3333 85.3333 -3.17891e-07 64 0 c 128
 42.6667 0 32 5.33333 32 16 c 128
 32 26.6667 37.3333 72 48 152 c 128
 58.6667 232 61.3333 298.667 56 352 c 128
 50.6667 405.333 45.3333 440 40 456 c 128
 34.6667 472 48 480 80 480 c 0
96 288 m 1
 138.667 362.667 176 410.667 208 432 c 128
 240 453.333 269.333 466.667 296 472 c 128
 322.667 477.333 346.667 474.667 368 464 c 128
 389.333 453.333 389.333 437.333 368 416 c 128
 346.667 394.667 328 392 312 408 c 128
 296 424 269.333 421.333 232 400 c 128
 194.667 378.667 149.333 330.667 96 256 c 1
 96 288 l 1
112 288 m 1
 154.667 288 202.667 250.667 256 176 c 1
 309.333 90.6667 341.333 45.3333 352 40 c 128
 362.667 34.6667 370.667 32 376 32 c 128
 381.333 32 394.667 42.6667 416 64 c 1
 432 48 l 1
 410.667 16 386.667 0 360 0 c 128
 333.333 0 309.333 8 288 24 c 128
 266.667 40 234.667 90.6667 192 176 c 1
 170.667 229.333 144 261.333 112 272 c 1
 112 288 l 1
EndSplineSet
EndChar
StartChar: lambda
Encoding: 955 955 32
Width: 608
Flags: HW
Fore
320 496 m 1
 352 400 l 1
 128 32 l 1
 117.333 10.6667 96 3.17891e-07 64 0 c 0
 32 0 37.3333 26.6667 80 80 c 1
 320 496 l 1
112 592 m 1
 122.667 613.333 136 632 152 648 c 128
 168 664 192 672 224 672 c 0
 256 672 282.667 661.333 304 640 c 128
 325.333 618.667 354.667 530.667 392 376 c 128
 429.333 221.333 453.333 125.333 464 88 c 128
 474.667 50.6667 490.667 32 512 32 c 0
 533.333 32 554.667 42.6667 576 64 c 1
 592 48 l 1
 570.667 16 538.667 0 496 0 c 1
 453.333 10.6667 426.667 37.3333 416 80 c 128
 400 144 400 144 344 376 c 128
 306.667 530.667 280 613.333 264 624 c 128
 248 634.667 229.333 640 208 640 c 0
 186.667 640 170.667 634.667 160 624 c 128
 149.333 613.333 138.667 597.333 128 576 c 1
 112 592 l 1
EndSplineSet
EndChar
StartChar: uni03BC
Encoding: 956 956 33
Width: 1024
Flags: HW
Fore
669 357 m 1
 655 230 751 142 796 137 c 1
 789 54 l 1
 746 51 655 98 633 178 c 1
 586 113 540 69 468 69 c 8
 415 69 379 87 350 127 c 1
 337 28 l 2
 332 -29 315 -98 302 -143 c 1
 203 -143 l 1
 230 -60 250 46 254 89 c 2
 294 524 l 1
 385 524 l 1
 368 332 l 2
 357 207 406 145 459 145 c 0
 506 145 559 174 567 264 c 2
 590 524 l 1
 684 524 l 1
 669 357 l 1
EndSplineSet
EndChar
StartChar: nu
Encoding: 957 957 34
Width: 592
Flags: HW
Fore
16 448 m 1
 37.3333 480 58.6667 496 80 496 c 0
 133.333 496 170.667 472 192 424 c 128
 213.333 376 256 256 320 64 c 1
 373.333 117.333 413.333 186.667 440 272 c 128
 466.667 357.333 472 405.333 456 416 c 128
 440 426.667 432 437.333 432 448 c 128
 432 458.667 437.333 469.333 448 480 c 128
 458.667 490.667 472 496 488 496 c 128
 504 496 517.333 490.667 528 480 c 128
 538.667 469.333 544 456 544 440 c 128
 544 424 538.667 400 528 368 c 128
 517.333 336 490.667 280 448 200 c 128
 405.333 120 357.333 53.3333 304 0 c 1
 272 0 l 1
 186.667 309.333 122.667 464 80 464 c 0
 58.6667 464 42.6667 453.333 32 432 c 1
 16 448 l 1
EndSplineSet
EndChar
StartChar: xi
Encoding: 958 958 35
Width: 528
Flags: HW
Fore
208 672 m 1
 224 656 l 1
 160 645.333 128 624 128 592 c 0
 128 560 138.667 538.667 160 528 c 1
 368 544 l 1
 336 528 l 1
 250.667 528 192 517.333 160 496 c 128
 128 474.667 112 448 112 416 c 0
 112 373.333 138.667 341.333 192 320 c 1
 320 336 l 1
 288 320 l 1
 170.667 320 106.667 288 96 224 c 128
 85.3333 160 96 120 128 104 c 128
 160 88 208 80 272 80 c 0
 368 80 426.667 72 448 56 c 128
 469.333 40 480 10.6667 480 -32 c 0
 480 -85.3333 464 -120 432 -136 c 128
 400 -152 362.667 -160 320 -160 c 0
 288 -160 258.667 -152 232 -136 c 128
 205.333 -120 189.333 -104 184 -88 c 128
 178.667 -72 184 -58.6667 200 -48 c 128
 216 -37.3333 234.667 -48 256 -80 c 128
 277.333 -112 304 -128 336 -128 c 0
 368 -128 394.667 -122.667 416 -112 c 128
 437.333 -101.333 448 -85.3333 448 -64 c 0
 448 -42.6667 440 -26.6667 424 -16 c 128
 408 -5.33333 357.333 -1.58946e-07 272 0 c 0
 176 0 112 16 80 48 c 128
 48 80 37.3333 130.667 48 200 c 128
 58.6667 269.333 98.6667 314.667 168 336 c 128
 237.333 357.333 298.667 365.333 352 360 c 128
 405.333 354.667 432 344 432 328 c 128
 432 312 405.333 304 352 304 c 128
 272 304 272 304 192 304 c 0
 170.667 304 146.667 312 120 328 c 128
 93.3333 344 80 373.333 80 416 c 0
 80 458.667 96 490.333 128 511 c 128
 160 531.667 200 545 248 551 c 128
 296 557 344 557.333 392 552 c 128
 440 546.667 464 538.667 464 528 c 128
 464 517.333 432 509.333 368 504 c 128
 304 498.667 250.667 498.667 208 504 c 128
 165.333 509.333 136 517.333 120 528 c 128
 104 538.667 96 560 96 592 c 0
 96 634.667 133.333 661.333 208 672 c 1
EndSplineSet
EndChar
StartChar: omicron
Encoding: 959 959 36
Width: 1024
Flags: HW
Fore
242 266 m 0
 249 339 278 402 331 454 c 0
 382 506 448 532 527 532 c 0
 606 532 666 506 710 454 c 0
 753 402 772 339 765 265 c 0
 758 186 729 120 676 68 c 0
 624 16 558 -10 479 -10 c 0
 400 -10 340 16 297 68 c 0
 254 120 235 186 242 266 c 0
344 265 m 0
 339 202 351 154 379 120 c 0
 408 88 443 71 486 71 c 0
 529 71 568 88 604 120 c 0
 638 154 658 202 663 266 c 0
 669 327 657 373 629 404 c 0
 598 435 563 451 520 451 c 0
 477 451 438 435 404 404 c 0
 370 373 350 326 344 265 c 0
EndSplineSet
EndChar
StartChar: pi
Encoding: 960 960 37
Width: 624
Flags: HW
Fore
32 416 m 1
 74.6667 458.667 112 480 144 480 c 2
 480 480 l 2
 512 480 544 490.667 576 512 c 1
 592 496 l 1
 560 442.667 528 416 496 416 c 1
 144 432 l 1
 101.333 432 69.3333 421.333 48 400 c 1
 32 416 l 1
240 464 m 1
 288 448 l 1
 208 128 l 2
 186.667 42.6667 154.667 1.27157e-06 112 0 c 0
 80 0 53.3333 26.6667 32 80 c 1
 48 96 l 1
 69.3333 64 90.6667 48 112 48 c 0
 133.333 48 149.333 58.6667 160 80 c 1
 240 464 l 1
400 448 m 1
 464 448 l 1
 464 80 l 2
 464 48 474.667 32 496 32 c 0
 517.333 32 538.667 42.6667 560 64 c 1
 576 48 l 1
 554.667 16 522.667 0 480 0 c 0
 426.667 0 400 37.3333 400 112 c 2
 400 448 l 1
EndSplineSet
EndChar
StartChar: rho
Encoding: 961 961 38
Width: 560
Flags: HW
Fore
272 480 m 1
 346.667 480 405.333 458.667 448 416 c 128
 490.667 373.333 512 314.667 512 240 c 128
 512 165.333 490.667 106.667 448 64 c 128
 405.333 21.3333 352 6.35783e-07 288 0 c 0
 224 0 168 21.3333 120 64 c 128
 72 106.667 48 160 48 224 c 2
 48 256 l 2
 48 320 69.3333 373.333 112 416 c 128
 154.667 458.667 213.333 480 288 480 c 1
 288 448 l 1
 224 448 181.333 429.333 160 392 c 128
 138.667 354.667 128 304 128 240 c 128
 128 176 141.333 125.333 168 88 c 128
 194.667 50.6667 229.333 32 272 32 c 0
 336 32 378.667 50.6667 400 88 c 128
 421.333 125.333 432 176.333 432 241 c 128
 432 305.667 421.333 356.333 400 393 c 128
 378.667 429.667 336 448 272 448 c 1
 272 480 l 1
48 240 m 1
 96 224 l 1
 106.667 149.333 114.667 82.6667 120 24 c 128
 125.333 -34.6667 130.667 -74.6667 136 -96 c 128
 141.333 -117.333 133.333 -133.333 112 -144 c 128
 90.6667 -154.667 74.6667 -157.333 64 -152 c 128
 53.3333 -146.667 50.6667 -125.333 56 -88 c 128
 61.3333 -50.6667 58.6667 58.6667 48 240 c 1
EndSplineSet
EndChar
StartChar: sigma1
Encoding: 962 962 22
Width: 1024
Flags: HW
Fore
525.037 38.541 m 1
 323.803 63.6582 308.679 215.219 308.679 291.743 c 0
 308.679 400.585 386.467 526.448 564.162 526.448 c 0
 621 526.448 675 498 714.255 444.922 c 1
 717 429 678 399 665.865 404.851 c 1
 652.987 404.851 648.825 413.88 640.755 430.056 c 1
 633.301 443.167 606 466.37 558.112 466.37 c 1
 474 465 370.634 411 370.634 293.652 c 0
 370.634 203 400 119 541.358 99.0352 c 0
 603.774 90.2197 658.185 49.4297 658.185 -16.7217 c 0
 658.185 -105.021 568 -123 501.122 -122.947 c 1
 500.735 -62 l 1
 574 -60 588.384 -33.8271 588.384 -16.6787 c 0
 588.384 -3.02051 562 39 525.037 38.541 c 1
EndSplineSet
EndChar
StartChar: sigma
Encoding: 963 963 23
Width: 560
Flags: HW
Fore
272 480 m 1
 346.667 480 405.333 458.667 448 416 c 128
 490.667 373.333 512 314.667 512 240 c 128
 512 165.333 490.667 106.667 448 64 c 128
 405.333 21.3333 352 6.35783e-07 288 0 c 0
 224 0 168 21.3333 120 64 c 128
 72 106.667 48 165.333 48 240 c 128
 48 314.667 69.3333 373.333 112 416 c 128
 154.667 458.667 213.333 480 288 480 c 1
 288 448 l 1
 224 448 181.333 429.333 160 392 c 128
 138.667 354.667 128 304 128 240 c 128
 128 176 141.333 125.333 168 88 c 128
 194.667 50.6667 229.333 32 272 32 c 0
 336 32 378.667 50.6667 400 88 c 128
 421.333 125.333 432 176.333 432 241 c 128
 432 305.667 421.333 356.333 400 393 c 128
 378.667 429.667 336 448 272 448 c 1
 272 480 l 1
304 464 m 1
 368 464 410.667 474.667 432 496 c 128
 453.333 517.333 466.667 528 472 528 c 128
 477.333 528 485.333 520 496 504 c 128
 506.667 488 504 474.667 488 464 c 128
 472 453.333 421.333 448 336 448 c 1
 304 464 l 1
EndSplineSet
EndChar
StartChar: tau
Encoding: 964 964 24
Width: 624
Flags: HW
Fore
32 416 m 1
 74.6667 458.667 112 480 144 480 c 2
 480 480 l 2
 512 480 544 490.667 576 512 c 1
 592 496 l 1
 560 442.667 528 416 496 416 c 1
 144 432 l 1
 101.333 432 69.3333 421.333 48 400 c 1
 32 416 l 1
272 448 m 1
 336 448 l 1
 336 80 l 2
 336 48 346.667 32 368 32 c 0
 389.333 32 410.667 42.6667 432 64 c 1
 448 48 l 1
 426.667 16 394.667 0 352 0 c 0
 298.667 0 272 37.3333 272 112 c 2
 272 448 l 1
EndSplineSet
EndChar
StartChar: upsilon
Encoding: 965 965 25
Width: 560
Flags: HW
Fore
16 432 m 1
 48 464 77.3333 480 104 480 c 128
 130.667 480 152 469.333 168 448 c 128
 184 426.667 186.667 341.333 176 192 c 1
 176 117.333 189.333 72 216 56 c 128
 242.667 40 272 32 304 32 c 0
 336 32 370.667 48 408 80 c 128
 445.333 112 466.667 162.667 472 232 c 128
 477.333 301.333 477.333 349.333 472 376 c 128
 466.667 402.667 448 418.667 416 424 c 128
 384 429.333 368 440 368 456 c 128
 368 472 378.667 482.667 400 488 c 128
 421.333 493.333 440 488 456 472 c 128
 472 456 485.333 426.667 496 384 c 128
 506.667 341.333 509.333 285.333 504 216 c 128
 498.667 146.667 474.667 93.3333 432 56 c 128
 389.333 18.6667 341.333 -6.35783e-07 288 0 c 0
 213.333 0 162.667 16 136 48 c 128
 109.333 80 96 128 96 192 c 1
 106.667 341.333 106.667 421.333 96 432 c 128
 85.3333 442.667 64 437.333 32 416 c 1
 16 432 l 1
EndSplineSet
EndChar
StartChar: phi
Encoding: 966 966 26
Width: 576
Flags: HW
Fore
208 480 m 1
 224 464 l 1
 181.333 453.333 152 432 136 400 c 128
 120 368 112 320 112 256 c 128
 112 192 120 146.667 136 120 c 128
 152 93.3333 173.333 72 200 56 c 128
 226.667 40 261.333 32 304 32 c 128
 346.667 32 381.333 40 408 56 c 128
 434.667 72 453.333 93.3333 464 120 c 128
 474.667 146.667 480 192 480 256 c 128
 480 320 474.667 368 464 400 c 128
 453.333 432 434.667 450.667 408 456 c 128
 381.333 461.333 360 458.667 344 448 c 128
 328 437.333 317.333 418.667 312 392 c 128
 306.667 365.333 309.333 269.333 320 104 c 128
 330.667 -61.3333 328 -146.667 312 -152 c 128
 296 -157.333 277.333 -160 256 -160 c 128
 234.667 -160 229.333 -144 240 -112 c 128
 250.667 -80 256 8 256 152 c 128
 256 296 261.333 381.333 272 408 c 128
 282.667 434.667 298.667 453.333 320 464 c 128
 341.333 474.667 365.333 480 392 480 c 128
 418.667 480 442.667 472 464 456 c 128
 485.333 440 498.667 418.667 504 392 c 128
 509.333 365.333 512 317.333 512 248 c 128
 512 178.667 504 128 488 96 c 128
 472 64 450.667 40 424 24 c 128
 397.333 8 354.667 0 296 0 c 128
 237.333 0 192 10.6667 160 32 c 128
 128 53.3333 104 77.3333 88 104 c 128
 72 130.667 64 181.333 64 256 c 128
 64 330.667 74.6667 384 96 416 c 128
 117.333 448 154.667 469.333 208 480 c 1
EndSplineSet
EndChar
StartChar: chi
Encoding: 967 967 27
Width: 544
Flags: HW
Fore
384 352 m 1
 405.333 384 418.667 413.333 424 440 c 128
 429.333 466.667 453.333 480 496 480 c 0
 528 480 522.667 453.333 480 400 c 1
 112 -128 l 1
 101.333 -149.333 80 -160 48 -160 c 0
 16 -160 21.3333 -133.333 64 -80 c 1
 384 352 l 1
48 400 m 1
 58.6667 421.333 72 440 88 456 c 128
 104 472 128 480 160 480 c 0
 192 480 218.667 469.333 240 448 c 128
 261.333 426.667 290.667 344 328 200 c 128
 365.333 56 389.333 -34.6667 400 -72 c 128
 410.667 -109.333 426.667 -128 448 -128 c 0
 469.333 -128 490.667 -117.333 512 -96 c 1
 528 -112 l 1
 506.667 -144 474.667 -160 432 -160 c 1
 389.333 -149.333 362.667 -122.667 352 -80 c 128
 336 -16 336 -16 280 200 c 128
 242.667 344 216 421.333 200 432 c 128
 184 442.667 165.333 448 144 448 c 0
 122.667 448 106.667 442.667 96 432 c 128
 85.3333 421.333 74.6667 405.333 64 384 c 1
 48 400 l 1
EndSplineSet
EndChar
StartChar: psi
Encoding: 968 968 28
Width: 1024
Flags: HW
Fore
536.722 21 m 1
 520.722 -159 l 1
 516.722 -158 417.722 -158 417.722 -158 c 1
 433.722 23 l 1
 366.722 31 304.722 55 254.722 95 c 0
 189.722 145 161.722 210 168.722 290 c 0
 175.722 375 205.722 440 257.722 485 c 0
 291.722 515 329.722 530 373.722 542 c 1
 364.722 439 l 1
 342.722 431 324.722 419 312.722 405 c 0
 289.722 380 274.722 341 270.722 290 c 0
 266.722 245 280.722 206 316.722 173 c 0
 340.722 148 387.722 133 442.722 126 c 1
 483.722 684 l 1
 517.722 682 551.722 684 586.722 684 c 1
 545.722 125 l 1
 603.722 131 640.722 147 676.722 175 c 0
 717.722 210 740.722 249 744.722 294 c 0
 749.722 355 738.722 408 696.722 434 c 1
 706.722 546 l 1
 744.722 532 776.722 516 800.722 485 c 0
 837.722 438 853.722 374 846.722 294 c 0
 839.722 213 799.722 147 726.722 95 c 0
 665.722 54 605.722 29 536.722 21 c 1
EndSplineSet
EndChar
StartChar: omega
Encoding: 969 969 29
Width: 736
Flags: HW
Fore
256 480 m 1
 272 464 l 1
 229.333 453.333 194.667 424 168 376 c 128
 141.333 328 128 274.667 128 216 c 128
 128 157.333 141.333 112 168 80 c 128
 194.667 48 224 32 256 32 c 0
 288 32 325.333 64 368 128 c 1
 384 288 l 1
 368 144 l 1
 400 69.3333 437.333 32 480 32 c 0
 522.667 32 554.667 45.3333 576 72 c 128
 597.333 98.6667 610.667 144 616 208 c 128
 621.333 272 613.333 328 592 376 c 128
 570.667 424 538.667 453.333 496 464 c 1
 512 480 l 1
 565.333 469.333 608 442.667 640 400 c 128
 672 357.333 688 296 688 216 c 128
 688 136 669.333 80 632 48 c 128
 594.667 16 544 0 480 0 c 0
 437.333 0 405.333 13.3333 384 40 c 128
 362.667 66.6667 349.333 109.333 344 168 c 128
 338.667 226.667 341.333 266.667 352 288 c 128
 362.667 309.333 373.333 320 384 320 c 128
 394.667 320 402.667 312 408 296 c 128
 413.333 280 413.333 245.333 408 192 c 128
 402.667 138.667 384 93.3333 352 56 c 128
 320 18.6667 288 -6.35783e-07 256 0 c 0
 192 0 141.333 21.3333 104 64 c 128
 66.6667 106.667 50.6667 162.667 56 232 c 128
 61.3333 301.333 82.6667 357.333 120 400 c 128
 157.333 442.667 202.667 469.333 256 480 c 1
EndSplineSet
EndChar
StartChar: theta1
Encoding: 977 977 23
Width: 1024
Flags: HW
Fore
357 236 m 0
 286 73 345 27 363 24 c 1
 428 24 528 105 560 233 c 0
 570 281 580 345 584 409 c 0
 585 424 586 439 587 453 c 0
 587 483 l 0
 588 561 579 634 558 679 c 0
 557 679 l 0
 549 702 506 715 480 701 c 0
 461 693 437 643 450 609 c 0
 474 532 519 488 557 478 c 0
 560 477 571 476 584 477 c 0
 592 477 601 478 611 479 c 0
 650 483 730 504 764 523 c 1
 789 460 l 17
 751 439 624 388 519 412 c 0
 454 427 389 498 372 595 c 0
 359 666 391 731 447 761 c 1
 507 793 594 759 626 705 c 1
 654 656 669 581 673 499 c 0
 674.881 446.33 664.502 295.884 653 247 c 0
 615 75 503 -51 351 -51 c 0
 225 -48 226 116 274 239 c 0
 322 360 316 407 270 436 c 0
 254 446 222 423 191 407 c 1
 166 452 l 1
 204 484 262 508 303 489 c 0
 368 458 410 358 357 236 c 0
EndSplineSet
EndChar
StartChar: phi1
Encoding: 981 981 24
Width: 1024
Flags: HW
Fore
413.938 461.639 m 1
 381.433 434.383 338.963 357.534 338.963 313.015 c 0
 338.963 163.568 450.254 138.104 506.735 138.104 c 0
 620.139 138.104 695.401 222.731 697.332 297.629 c 1
 700 357 670 427.859 633.8 427.859 c 1
 603 427.859 583.679 404.77 551.957 305.235 c 0
 513 183 469.16 -6.10533 444.924 -118.624 c 1
 428.832 -143.703 370.002 -127.415 372.936 -100.15 c 1
 406.978 45.7761 439.816 185.142 486.383 323.857 c 1
 541 480 593 492.568 628.337 492.568 c 0
 716 492.568 770 406 769.91 295.859 c 1
 768 182 659.561 67.7779 497.907 67.7779 c 0
 396.879 67.7779 268.866 125.585 268.983 299.395 c 0
 269.055 351.608 285 423 342 490 c 1
 413.938 461.639 l 1
EndSplineSet
EndChar
StartChar: afii10023
Encoding: 1025 1025 25
Width: 1024
Flags: HW
Fore
262 -12 m 1
 262 690 l 1
 805 690 l 1
 804 600 l 1
 360 600 l 1
 360 405 l 1
 744 405 l 1
 744 315 l 1
 360 315 l 1
 360 78 l 1
 804 78 l 1
 804 -12 l 1
 262 -12 l 1
360 744 m 1
 360 862 l 1
 478 862 l 1
 478 744 l 1
 360 744 l 1
608 744 m 1
 608 862 l 1
 726 862 l 1
 726 744 l 1
 608 744 l 1
EndSplineSet
EndChar
StartChar: afii10017
Encoding: 1040 1040 26
Width: 1024
Flags: HW
Fore
838 -12 m 1
 734 -12 l 1
 653 210 l 1
 349 210 l 1
 268 -12 l 1
 164 -12 l 1
 443 750 l 5
 559 750 l 5
 838 -12 l 1
382 300 m 1
 620 300 l 1
 505 614 l 1
 497 614 l 1
 382 300 l 1
EndSplineSet
EndChar
StartChar: afii10018
Encoding: 1041 1041 27
Width: 1024
Flags: HW
Fore
782 751 m 25
 782 657 l 25
 362 657 l 1
 362 444 l 1
 476 444 l 1
 562.666 443.79 637 443 701 406 c 1
 775 362 816.333 293 817 223 c 2
 817 222 l 2
 817 155.333 793.333 94.6667 746 52 c 0
 698 9.33333 612 -12 488 -12 c 2
 264 -12 l 1
 264 750 l 1
 782 751 l 25
713 222 m 2
 713 265.333 695.333 303.333 660 324 c 0
 624 344 582 354 476 354 c 2
 362 354 l 1
 362 78 l 1
 488 78 l 2
 580.667 78 641.333 92 670 120 c 0
 698.667 147.333 713 185 713 221 c 2
 713 222 l 2
EndSplineSet
EndChar
StartChar: afii10019
Encoding: 1042 1042 28
Width: 1024
Flags: HW
Fore
264 -12 m 1
 264 750 l 1
 496 750 l 2
 597.333 750 672 732.667 720 698 c 0
 767.333 663.333 791 613 791 547 c 2
 791 546 l 2
 791 490 760.667 438.667 700 392 c 1
 777.333 345.333 816.333 287 817 217 c 2
 817 216 l 2
 817 149.333 793.333 94.6667 746 52 c 0
 698 9.33333 612 -12 488 -12 c 2
 264 -12 l 1
713 216 m 2
 713 259.333 695.333 291.333 660 312 c 0
 624 332 562.667 342 476 342 c 2
 362 342 l 1
 362 78 l 1
 488 78 l 2
 580.667 78 641.333 92 670 120 c 0
 698.667 147.333 713 179 713 215 c 2
 713 216 l 2
687 546 m 2
 687 582.667 674 610.667 648 630 c 0
 622 650 571.333 660 496 660 c 2
 362 660 l 1
 362 432 l 1
 476 432 l 2
 562.667 432 619.333 442 646 462 c 0
 673.333 481.333 687 509 687 545 c 2
 687 546 l 2
EndSplineSet
EndChar
StartChar: afii10020
Encoding: 1043 1043 29
Width: 1024
Flags: HW
Fore
832 751 m 1
 265 750 l 1
 265 -12 l 1
 365 -12 l 1
 365 660 l 1
 831 660 l 1
 832 751 l 1
EndSplineSet
EndChar
StartChar: afii10021
Encoding: 1044 1044 30
Width: 1024
Flags: HW
Fore
736 18 m 1
215 107 m 1,1,-1
 256 107 l 1,2,3
 294 181 307 276 318 333 c 0,4,5
 336.801 430.962 336.019 581.9 336 739 c 1,6,7
 334.613 745.387 337.867 747.132 344 746 c 1,8,-1
 796 746 l 1,9,-1
 796 107 l 1,10,-1
 832 107 l 1,11,-1
 834 -27 l 1,12,-1
 737 -27 l 1,13,-1
 736 18 l 1,14,-1
 290 18 l 1,15,16
 275 1 283 -15 271 -27 c 1,17,-1
 170 -27 l 1,18,19
 194 17 201 52 207 100 c 1,20,21
 206.77 105.229 208.653 108.347 215 107 c 1,1,-1
359 107 m 1,22,-1
 698 107 l 1,23,-1
 698 657 l 1,24,-1
 434 657 l 1,25,26
 433 510 430 413 409 299 c 0,27,28
 399 239 385 174 359 107 c 1,22,-1
EndSplineSet
EndChar
StartChar: afii10022
Encoding: 1045 1045 31
Width: 1024
Flags: HW
Fore
262 -12 m 1
 262 750 l 1
 804 750 l 1
 804 660 l 1
 360 660 l 1
 360 432 l 1
 744 432 l 1
 744 342 l 1
 360 342 l 1
 360 78 l 1
 804 78 l 1
 804 -12 l 1
 262 -12 l 1
EndSplineSet
EndChar
StartChar: afii10024
Encoding: 1046 1046 32
Width: 1024
VWidth: 0
Flags: HW
Fore
856 675 m 0
 800 675 767 619 755 503 c 1
 739 336 643 345 552 345 c 1
 552 429 l 1
 641 410 683 535 685 562 c 0
 698 731 782 757 856 757 c 1
 933 757 l 17
 933 757 933 676 932 675 c 1
 932 675 888 675 856 675 c 0
552 413 m 1
 670 413 706 402 767 341 c 0
 793 315 817 267 853 201 c 8
 897.361 119.671 919 84 991 15 c 1
 988 15 879 15 879 15 c 1
 838 56 807.652 101.762 768 165 c 24
 733.688 219.723 734 249 693 308 c 0
 663 352 664 359 552 359 c 1
 552 413 l 1
168 675 m 0
 136 675 92 675 92 675 c 1
 92 676 91 757 91 757 c 9
 168 757 l 1
 242 757 326 731 339 562 c 0
 341 535 383 410 472 429 c 1
 472 345 l 1
 381 345 285 336 269 503 c 1
 257 619 224 675 168 675 c 0
472 413 m 1
 472 359 l 1
 360 359 361 352 331 308 c 0
 290 249 290.312 219.723 256 165 c 24
 216.348 101.762 186 56 145 15 c 1
 145 15 36 15 33 15 c 1
 105 84 126.639 119.671 171 201 c 16
 207 267 231 315 257 341 c 0
 318 402 354 413 472 413 c 1
463 -13 m 1
 463 770 l 1
 561 770 l 1
 561 -13 l 1
 463 -13 l 1
EndSplineSet
EndChar
StartChar: afii10025
Encoding: 1047 1047 33
Width: 1024
Flags: HW
Fore
224.465 175 m 1
 329.333 175.017 l 1
 339.712 150.369 362.946 124.363 385.515 113 c 0
 421.265 95 447 83 499.23 83 c 0
 558 83 600.061 89.833 642.96 111.5 c 0
 685.86 133.167 717.311 165.667 717.311 209 c 0
 717.311 263.667 677.663 306.833 622.37 332.5 c 0
 587.902 348.5 535.622 363.016 507 366.407 c 1
 507 437.605 l 1
 534.618 441.24 578.784 448.416 606.925 465.5 c 0
 650.302 491.833 679.99 527.667 679.99 561 c 0
 679.99 593.667 660.446 623.833 621.36 645.5 c 0
 582.273 667.167 544.896 675 497.23 675 c 0
 448.61 675 417.379 658.333 383.535 639 c 0
 362.816 627.164 339.564 589.831 330.076 567 c 1
 220.684 566.975 l 1
 230.918 612.208 260.023 663.217 300 690 c 0
 353.733 726 415.2 756 498.4 756 c 0
 589.4 756 650.283 739 707.05 697 c 0
 763.816 655 792.2 606.667 792.2 560 c 0
 792.2 526 778.983 493.167 752.55 461.5 c 0
 726.117 429.833 713 417 658.12 402 c 1
 707.694 395.333 731.316 375.5 768.15 342.5 c 0
 804.983 309.5 823.4 265.333 823.4 210 c 0
 823.4 158 793.283 104.667 733.05 60 c 0
 672.816 15.333 605.267 -2 500.4 -2 c 0
 406.8 -2 357.267 19.667 301.8 57 c 0
 261.06 84.4209 235.281 131.754 224.465 175 c 1
EndSplineSet
EndChar
StartChar: afii10026
Encoding: 1048 1048 34
Width: 1024
Flags: HW
Fore
702 -12 m 1
 702 600 l 1
 701 596 l 1
 307 -12 l 1
 184 -12 l 1
 184 750 l 1
 282 750 l 1
 282 140 l 1
 283 147 l 1
 677 750 l 1
 800 750 l 1
 800 -12 l 1
 702 -12 l 1
EndSplineSet
EndChar
StartChar: afii10027
Encoding: 1049 1049 35
Width: 1024
Flags: HW
Fore
269 799 m 5
 353 865 l 5
 375.869 827.36 411 797.346 486 797.346 c 4
 573 797.346 607.634 828.21 638 868 c 5
 719 798 l 5
 642 722 585 702.434 486 702.434 c 4
 391.605 702.434 342 716 269 799 c 5
702 -12 m 1
 702 588 l 1
 701 584 l 1
 307 -12 l 1
 184 -12 l 1
 184 738 l 1
 282 738 l 1
 282 140 l 1
 283 147 l 1
 683 738 l 1
 800 738 l 1
 800 -12 l 1
 702 -12 l 1
EndSplineSet
EndChar
StartChar: afii10028
Encoding: 1050 1050 36
Width: 1024
Flags: HW
Fore
564 478 m 0
 516 324 332 291 329 289 c 1
 329 382 l 1
 439 412 462 480 502 546 c 0
 577.565 670.683 662 733 711 757 c 1
 838 757 l 17
 838 750 l 1
 790 717 596 579 564 478 c 0
561 497 m 1
 880 -12 l 1
 754 -12 l 1
 489 423 l 1
 561 497 l 1
330 -12 m 1
 232 -12 l 1
 232 750 l 1
 330 750 l 1
 330 -12 l 1
EndSplineSet
EndChar
StartChar: afii10029
Encoding: 1051 1051 37
Width: 1024
Flags: HW
Fore
160 -45 m 1
 160 57 l 1
 227 84 270.385 162.609 295.82 246 c 0
 333.891 370.812 337 516 330 728 c 1
 808 728 l 1
 808 -34 l 1
 710 -34 l 1
 710 639 l 1
 429 639 l 1
 430 435 403.435 192.086 349.477 109 c 0
 267 -18 233.889 -6.60645 160 -45 c 1
EndSplineSet
EndChar
StartChar: afii10030
Encoding: 1052 1052 38
Width: 1024
Flags: HW
Fore
204 -12 m 1
 106 -12 l 1
 106 750 l 1
 229 750 l 1
 508 174 l 1
 518 174 l 1
 769 750 l 1
 892 750 l 1
 892 -12 l 1
 794 -12 l 1
 794 552 l 1
 788 552 l 1
 545 -9 l 1
 481 -9 l 1
 210 552 l 1
 204 552 l 1
 204 -12 l 1
EndSplineSet
EndChar
StartChar: afii10031
Encoding: 1053 1053 39
Width: 1024
Flags: HW
Fore
328 -12 m 1
 230 -12 l 1
 230 750 l 1
 328 750 l 1
 328 432 l 1
 716 432 l 1
 716 750 l 1
 814 750 l 1
 814 -12 l 1
 716 -12 l 1
 716 342 l 1
 328 342 l 1
 328 -12 l 1
EndSplineSet
EndChar
StartChar: afii10032
Encoding: 1054 1054 40
Width: 1024
Flags: HW
Fore
128 380 m 0
 128 478.667 165.167 566 239.5 642 c 0
 313.833 718 405.667 756 515 756 c 0
 624.333 756 713.667 718 783 642 c 0
 852.333 566 887 478.667 887 380 c 0
 887 272 852.333 180 783 104 c 0
 713.667 28 624.333 -10 515 -10 c 0
 405.667 -10 313.833 28 239.5 104 c 0
 165.167 180 128 272 128 380 c 0
232 380 m 0
 232 280 261 203.5 319 150.5 c 0
 377 97.5 442.333 71 515 71 c 0
 587.667 71 650.5 97.5 703.5 150.5 c 0
 756.5 203.5 783 280 783 380 c 0
 783 474 756.5 546.667 703.5 598 c 0
 650.5 649.333 587.667 675 515 675 c 0
 442.333 675 377 649.333 319 598 c 0
 261 546.667 232 474 232 380 c 0
EndSplineSet
EndChar
StartChar: afii10033
Encoding: 1055 1055 41
Width: 1024
Flags: HW
Fore
328 -12 m 1
 230 -12 l 1
 230 750 l 1
 814 750 l 1
 814 -12 l 1
 716 -12 l 1
 716 661 l 1
 328 661 l 1
 328 -12 l 1
EndSplineSet
EndChar
StartChar: afii10034
Encoding: 1056 1056 42
Width: 1024
Flags: HW
Fore
394 -12 m 1
 296 -12 l 1
 296 750 l 1
 560 750 l 2
 668 750 743.167 732 785.5 696 c 0
 827.833 660 849 610.333 849 547 c 0
 849 482.333 827.833 432 785.5 396 c 0
 743.167 360 668 342 560 342 c 2
 394 342 l 1
 394 -12 l 1
745 547 m 0
 745 585.667 733.333 614.167 710 632.5 c 0
 686.667 650.833 636.667 660 560 660 c 2
 394 660 l 1
 394 432 l 1
 560 432 l 2
 636.667 432 686.667 441.167 710 459.5 c 0
 733.333 477.833 745 507 745 547 c 0
EndSplineSet
EndChar
StartChar: afii10035
Encoding: 1057 1057 43
Width: 1024
Flags: HW
Fore
128 378 m 0
 128 478 164.167 567 238.5 643 c 0
 312.833 719 405 756 513 756 c 0
 606.333 756 683.333 731.667 744 683 c 0
 804.667 634.333 841.667 572 855 496 c 1
 747 496 l 1
 736.333 550 711.167 593.333 671.5 626 c 0
 631.833 658.667 579 675 513 675 c 0
 441.667 675 377 649.333 319 598 c 0
 261 546.667 232 473 232 377 c 0
 232 279 261 203.5 319 150.5 c 0
 377 97.5 441.667 71 513 71 c 0
 579 71 634.5 89.1667 679.5 125.5 c 0
 724.5 161.833 752.333 211 763 273 c 1
 871 273 l 1
 860.333 197.667 826.667 131.667 770 75 c 0
 713.333 18.3333 627.667 -10 513 -10 c 0
 405 -10 312.833 27 238.5 103 c 0
 164.167 179 128 271.333 128 378 c 0
EndSplineSet
EndChar
StartChar: afii10036
Encoding: 1058 1058 44
Width: 1024
Flags: HW
Fore
554 -12 m 1
 456 -12 l 1
 456 660 l 1
 150 660 l 1
 150 750 l 1
 862 750 l 1
 862 660 l 1
 554 660 l 1
 554 -12 l 1
EndSplineSet
EndChar
StartChar: afii10037
Encoding: 1059 1059 45
Width: 1024
Flags: HW
Fore
395 -13 m 1
 449 88 l 1
 162 750 l 1
 279 750 l 1
 511 218 l 1
 766 751 l 1
 888 751 l 1
 498 -36 l 1
 458.667 -116 381.333 -144 266 -120 c 1
 266 -25 l 1
 332 -46.333 375 -43.667 395 -13 c 1
EndSplineSet
EndChar
StartChar: afii10038
Encoding: 1060 1060 46
Width: 1024
Flags: HW
Fore
348 219 m 2
 392 189 428 171.667 456 167 c 1
 456 570 l 1
 426 564.667 390 548 348 520 c 0
 300.667 490 275 444.667 271 384 c 2
 270 368 l 1
 270 306 295 257 345 221 c 2
 348 219 l 2
745 184 m 0
 697.667 148 651.667 125.333 607 116 c 1
 552 109 l 1
 552 -14 l 1
 455 -14 l 1
 455 111 l 1
 399.667 115.667 346.667 135 296 169 c 0
 229.333 213.667 189.667 267.667 177 331 c 0
 174.333 343 173 355.333 173 368 c 2
 173 369 l 2
 173 439 207.333 500.667 276 554 c 0
 332 596.667 392 621.333 456 628 c 1
 456 756 l 1
 554 756 l 1
 554 628 l 1
 632 620 696.333 595.333 747 554 c 0
 813 500 845 438.333 843 369 c 0
 841.667 313.667 818 260.667 772 210 c 0
 762.667 199.333 753.667 190.667 745 184 c 0
679 518 m 0
 640.333 546 598.667 563.333 554 570 c 1
 554 166 l 1
 590 171.333 626.333 186.667 663 212 c 0
 710.333 244 737.333 288.667 744 346 c 1
 745 369 l 1
 745 435.667 723 485.333 679 518 c 0
EndSplineSet
EndChar
StartChar: afii10039
Encoding: 1061 1061 47
Width: 1024
Flags: HW
Fore
892 -12 m 1
 770 -12 l 1
 514 324 l 1
 280 -12 l 1
 158 -12 l 1
 451 407 l 1
 190 749 l 1
 312 750 l 1
 536 456 l 1
 744 750 l 1
 866 750 l 1
 599 372 l 1
 892 -12 l 1
EndSplineSet
EndChar
StartChar: afii10040
Encoding: 1062 1062 48
Width: 1024
Flags: HW
Fore
719.467 20 m 1
 249 20 l 1
 249 750 l 1
 347 750 l 1
 347 109 l 1
 684 109 l 1
 684 750 l 1
 782 750 l 1
 783 113 l 1
 822 113 l 1
 830 -36 l 1
 728 -36 l 1
 719.467 20 l 1
EndSplineSet
EndChar
StartChar: afii10041
Encoding: 1063 1063 49
Width: 1024
Flags: HW
Fore
642.8 770 m 1
 748 770 l 1
 748 -13 l 1
 642.8 -13 l 1
 642.8 267 l 1
 584.4 211.667 520.4 194 462.8 194 c 0
 419.6 194 363 206 317 232 c 0
 271 258 246 322.333 246 399 c 2
 246 770 l 1
 353 770 l 1
 353.2 399 l 2
 353.2 354.333 367.2 324.5 387.2 309.5 c 0
 407.2 294.5 443.6 288 484.4 288 c 0
 517.2 288 551.4 296.5 583 323.5 c 0
 614.6 350.5 628 353 642.8 419 c 1
 642.8 770 l 1
EndSplineSet
EndChar
StartChar: afii10042
Encoding: 1064 1064 50
Width: 1024
Flags: HW
Fore
878.5 22 m 1
 878.5 750 l 1
 780.5 750 l 1
 780.5 109 l 1
 560.5 109 l 1
 560.5 750 l 1
 462.5 750 l 1
 462.5 109 l 1
 243.5 109 l 1
 243.5 750 l 1
 145.5 750 l 1
 145.5 20 l 1
 878.5 22 l 1
EndSplineSet
EndChar
StartChar: afii10043
Encoding: 1065 1065 51
Width: 1024
Flags: HW
Fore
556 109 m 1
 776 109 l 1
 776 750 l 1
 874 750 l 1
 874 112 l 1
 875 113 l 1
 914 113 l 1
 922 -36 l 1
 820 -36 l 1
 811 20 l 1
 141 20 l 1
 141 750 l 1
 239 750 l 1
 239 109 l 1
 458 109 l 1
 458 750 l 1
 556 750 l 1
 556 109 l 1
EndSplineSet
EndChar
StartChar: afii10044
Encoding: 1066 1066 52
Width: 1024
Flags: HW
Fore
816 231 m 2
 816 274.333 798.333 321.333 763 342 c 0
 727 362 720 372 614 372 c 2
 520 372 l 1
 520 78 l 1
 626 78 l 2
 718.667 78 744.333 92 773 120 c 0
 801.667 147.333 816 194 816 230 c 2
 816 231 l 2
422 659 m 1
 150 659 l 1
 150 750 l 1
 520 751 l 1
 520 462 l 1
 614 462 l 1
 700.666 461.79 740 461 804 424 c 1
 878 380 917.333 302 918 232 c 2
 918 231 l 2
 918 164.333 896.333 94.667 849 52 c 0
 801 9.33301 750 -12 626 -12 c 2
 422 -12 l 1
 422 659 l 1
EndSplineSet
EndChar
StartChar: afii10045
Encoding: 1067 1067 53
Width: 1024
Flags: HW
Fore
842 770 m 1
 842 -12 l 1
 742 -12 l 1
 742 770 l 1
 842 770 l 1
271 770 m 17
 271 462 l 1
 368 462 l 1
 454.666 461.79 502 461 566 424 c 1
 640 380 679.333 302 680 232 c 2
 680 231 l 2
 680 164.333 658.333 94.667 611 52 c 0
 563 9.33301 504 -12 380 -12 c 2
 173 -12 l 1
 173 770 l 1
 271 770 l 17
578 231 m 2
 578 274.333 560.333 321.333 525 342 c 0
 489 362 474 372 368 372 c 2
 271 372 l 1
 271 78 l 1
 380 78 l 2
 472.667 78 506.333 92 535 120 c 0
 563.667 147.333 578 194 578 230 c 2
 578 231 l 2
EndSplineSet
EndChar
StartChar: afii10046
Encoding: 1068 1068 54
Width: 1024
Flags: HW
Fore
362 770 m 17
 362 462 l 1
 476 462 l 1
 562.666 461.79 637 461 701 424 c 1
 775 380 816.333 302 817 232 c 2
 817 231 l 2
 817 164.333 793.333 94.6667 746 52 c 0
 698 9.33333 612 -12 488 -12 c 2
 264 -12 l 1
 264 770 l 1
 362 770 l 17
713 231 m 2
 713 274.333 695.333 321.333 660 342 c 0
 624 362 582 372 476 372 c 2
 362 372 l 1
 362 78 l 1
 488 78 l 2
 580.667 78 641.333 92 670 120 c 0
 698.667 147.333 713 194 713 230 c 2
 713 231 l 2
EndSplineSet
EndChar
StartChar: afii10047
Encoding: 1069 1069 55
Width: 1024
Flags: HW
Fore
765 336 m 1
 335 336 l 1
 335 423 l 1
 765 423 l 1
 757 497 728 555 680 598 c 0
 622 649 557 675 486 675 c 0
 420 675 367 659 328 626 c 0
 300 604 280 576 266 544 c 1
 156 544 l 1
 175 599 208 645 255 683 c 0
 316 732 393 756 486 756 c 0
 594 756 688 722 762 646 c 0
 837 570 871 478 871 378 c 0
 871 271 837 180 762 104 c 0
 688 28 594 -10 486 -10 c 0
 371 -10 286 18 229 75 c 0
 187 117 158 164 141 216 c 1
 252 216 l 1
 267 180 289 150 320 126 c 0
 364 89 420 71 486 71 c 0
 557 71 622 98 680 150 c 0
 730 196 758 258 765 336 c 1
EndSplineSet
EndChar
StartChar: afii10048
Encoding: 1070 1070 56
Width: 1024
Flags: HW
Fore
391 380 m 0
 391 280 417 202 468 150 c 0
 519 96 571 71 635 71 c 0
 699 71 749 96 796 150 c 0
 843 202 866 280 866 380 c 0
 866 474 842 547 795 598 c 0
 748 649 699 675 635 675 c 0
 571 675 519 650 468 599 c 0
 417 548 391 474 391 380 c 0
293 345 m 1
 189 345 l 1
 189 -12 l 1
 91 -12 l 1
 91 768 l 1
 189 768 l 17
 189 440 l 1
 295 440 l 1
 304 530 334 586 388 645 c 8
 461.132 724.903 537 755 635 756 c 1
 734 756 812 720 874 644 c 0
 937 568 965 479 965 380 c 0
 965 272 936 179 873 103 c 0
 811 27 734 -10 635 -10 c 0
 537 -10 457 27 390 103 c 0
 331 171 299 252 293 345 c 1
EndSplineSet
EndChar
StartChar: afii10049
Encoding: 1071 1071 57
Width: 1024
Flags: HW
Fore
695 -13 m 1
 793 -13 l 1
 793 750 l 1
 537 750 l 2
 408 750 346 735 304 699 c 0
 261 663 240 610 240 546 c 0
 240 482 258 434 294 404 c 0
 329 373 377 354 437 346 c 1
 207 -13 l 1
 339 -13 l 1
 538 341 l 1
 695 341 l 1
 695 -13 l 1
344 546 m 0
 344 580 356 610 379 632 c 0
 402 652 450 660 537 660 c 2
 695 660 l 1
 695 431 l 1
 529 431 l 2
 452 431 402 442 379 462 c 0
 356 484 344 512 344 546 c 0
EndSplineSet
EndChar
StartChar: afii10065
Encoding: 1072 1072 58
Width: 1024
Flags: HW
Fore
492 532 m 4
 550.667 532 598.833 516.5 636.5 485.5 c 4
 674.167 454.5 693 409.333 693 350 c 6
 693 104 l 6
 693 62.6667 700.667 24.6667 716 -10 c 5
 608 -10 l 5
 604 10.6667 600.667 30 598 48 c 5
 581.333 30.6667 559.5 16.8333 532.5 6.5 c 4
 505.5 -3.83333 478.667 -9.33333 452 -10 c 4
 390.667 -10 342.833 2 308.5 26 c 4
 274.167 50 257 86.3333 257 135 c 4
 257 167.667 268.833 199 292.5 229 c 4
 316.167 259 351 284.667 397 306 c 4
 443 327.333 509 346.667 595 364 c 5
 595 378 l 6
 595 403.333 586.833 425.167 570.5 443.5 c 4
 554.167 461.833 528 471 492 471 c 4
 458 471 432.833 463.5 416.5 448.5 c 4
 400.167 433.5 389.333 412.333 384 385 c 5
 284 385 l 5
 289.333 429.667 312.667 465.333 354 492 c 4
 395.333 518.667 441.333 532 492 532 c 4
361 136 m 4
 361 106 370.5 86 389.5 76 c 4
 408.5 66 429.667 61 453 61 c 4
 476.333 61.6667 500.5 67.3333 525.5 78 c 4
 550.5 88.6667 573.667 113.667 595 153 c 5
 595 294 l 5
 534.333 280.667 488.167 267.5 456.5 254.5 c 4
 424.833 241.5 401 225.333 385 206 c 4
 369 186.667 361 163.333 361 136 c 4
EndSplineSet
EndChar
StartChar: afii10066
Encoding: 1073 1073 59
Width: 1024
Flags: HW
Fore
532 478 m 0
 582 478 628.833 457.333 672.5 416 c 0
 716.167 374.667 738 316 738 240 c 0
 738 176 718.167 118.667 674.5 70 c 0
 630.833 21.333 574.667 -2 510 -2 c 0
 448.667 -2 391 22 347 70 c 0
 303 118 286 189 286 345 c 0
 286 466.333 273.898 551.312 327 612 c 0
 369 660 420.841 673.639 492 681 c 16
 579 690 609 693 714.431 734.089 c 1
 714.431 638.09 l 1
 630 612 594 612 540 609 c 0
 485.16 605.953 423 597 397 565 c 0
 365.515 526.249 366 473 373 413 c 1
 414 471 483 478 532 478 c 0
510 79 m 0
 550 79 579.667 92.5 605 119.5 c 0
 630.333 146.5 643 186.667 643 240 c 0
 643 296 631 335.167 609 359.5 c 0
 587 383.833 561 397 529 397 c 0
 480.333 397 447.667 382.167 425 360.5 c 0
 402.333 338.833 387.667 311 381 277 c 1
 385.667 193.667 399.833 143.167 423.5 117.5 c 0
 447.167 91.833 476 79 510 79 c 0
EndSplineSet
EndChar
StartChar: afii10067
Encoding: 1074 1074 60
Width: 1024
Flags: HW
Fore
290 -12 m 1
 290 522 l 1
 483 522 l 2
 564 522 624 509 663 485 c 0
 700 461 719 426 719 380 c 2
 719 379 l 2
 719 340 695 304 647 271 c 1
 708 238 740 198 740 148 c 2
 740 148 l 2
 740 101 721 63 683 33 c 0
 645 3 576 -12 477 -12 c 2
 290 -12 l 1
654 148 m 2
 654 176 640 197 612 211 c 0
 583 224 571 230 501 230 c 2
 377 230 l 1
 377 58 l 1
 474 58 l 2
 548 58 597 67 620 86 c 0
 643 103 654 124 654 147 c 2
 654 148 l 2
633 380 m 2
 633 404 623 422 602 435 c 0
 581 448 541 454 480 454 c 2
 377 454 l 1
 377 304 l 1
 501 304 l 2
 571 304 579 311 600 324 c 0
 622 336 633 356 633 380 c 2
 633 380 l 2
EndSplineSet
EndChar
StartChar: afii10068
Encoding: 1075 1075 61
Width: 1024
Flags: HW
Fore
298.5 513 m 5
 725.5 513 l 5
 725.5 420 l 5
 393.5 420 l 5
 393.5 -12 l 1
 298.5 -12 l 1
 298.5 513 l 5
EndSplineSet
EndChar
StartChar: afii10069
Encoding: 1076 1076 62
Width: 1024
Flags: HW
Fore
687.5 10 m 1
271.5 94 m 1,1,-1
 303.5 94 l 1,2,3
 329.5 147 345.5 228 350.5 268 c 0,4,5
 357.5 321 361.5 424 361.5 537 c 1,6,7
 360.5 542 365.5 547 370.5 546 c 1,8,-1
 740.5 546 l 1,9,-1
 740.5 94 l 1,10,-1
 771.5 94 l 1,11,-1
 781.5 -26 l 1,12,-1
 692.5 -26 l 1,13,-1
 687.5 10 l 1,14,-1
 332.5 10 l 1,15,16
 326.5 -4 321.5 -10 316.5 -21 c 1,17,-1
 236.5 -21 l 1,18,19
 255.5 10 259.5 54 264.5 89 c 1,20,21
 264.5 93 266.5 95 271.5 94 c 1,1,-1
393.5 94 m 1,22,-1
 652.5 94 l 1,23,-1
 652.5 464 l 1,24,-1
 440.5 464 l 1,25,26
 438.5 358 433.5 307 424.5 234 c 0,27,28
 419.5 195 410.5 139 393.5 94 c 1,22,-1
EndSplineSet
EndChar
StartChar: afii10070
Encoding: 1077 1077 63
Width: 1024
Flags: HW
Fore
233 260 m 0
 233 332 258.167 395.333 308.5 450 c 0
 358.833 504.667 424 532 504 532 c 0
 585.333 532 651 509.333 701 464 c 0
 751 418.667 776 352.667 776 266 c 1
 668 266 l 1
 337 266 l 1
 337 259 l 2
 337 197 354.333 150.167 389 118.5 c 0
 423.667 86.8333 463.333 71 508 71 c 0
 551.333 71 586.833 77.8333 614.5 91.5 c 0
 642.167 105.167 662.667 132 676 172 c 1
 784 172 l 1
 774.667 117.333 746.333 73.3333 699 40 c 0
 651.667 6.66667 588 -10 508 -10 c 0
 426.667 -10 360.5 17.3333 309.5 72 c 0
 258.5 126.667 233 189.333 233 260 c 0
504 451 m 0
 459.333 451 424.167 439.333 398.5 416 c 0
 372.833 392.667 355.667 367.333 347 340 c 1
 661 340 l 1
 653 374 636 401 610 421 c 0
 584 441 548.667 451 504 451 c 0
EndSplineSet
EndChar
StartChar: afii10072
Encoding: 1078 1078 64
Width: 1024
VWidth: 0
Flags: HW
Fore
770 449 m 0
 793 449 825 449 825 449 c 1
 825 450 825 521 825 521 c 9
 770 521 l 1
 717 521 652 515 643 400 c 0
 642 382 617 297 553 310 c 1
 553 246 l 1
 618 246 692 235 703 348 c 1
 712 427 730 449 770 449 c 0
553 287 m 1
 553 243 l 1
 633 243 632 238 654 209 c 0
 683 168 685.077 153.166 709 118 c 24
 738.699 74.3428 760 41 789 13 c 1
 789 13 876 13 878 13 c 1
 827 60 811.699 86.4053 779 143 c 16
 753 188 736 222 718 240 c 0
 674 281 637 287 553 287 c 1
256 449 m 0
 234 449 201 449 201 449 c 1
 201 450 201 521 201 521 c 9
 256 521 l 1
 309 521 374 515 383 400 c 0
 385 382 410 297 473 310 c 1
 473 246 l 1
 408 246 335 235 323 348 c 1
 315 427 296 449 256 449 c 0
473 287 m 1
 473 243 l 1
 393 243 394 238 373 209 c 0
 343 168 340.886 153.442 317 118 c 24
 287.58 74.3457 268 40 239 12 c 1
 239 12 152 12 150 12 c 1
 201 59 216.22 85.7949 248 143 c 16
 273 188 290 222 309 240 c 0
 352 281 389 287 473 287 c 1
467 -3 m 1
 467 530 l 1
 559 530 l 1
 559 -3 l 1
 467 -3 l 1
EndSplineSet
EndChar
StartChar: afii10073
Encoding: 1079 1079 65
Width: 1024
Flags: HW
Fore
357 129 m 1
 366 113 382 97 400 89 c 0
 429 78 449 69 491 69 c 0
 538 69 572 72 606 85 c 0
 640 99 666 123 666 150 c 0
 666 184 634 210 590 226 c 0
 562 236 520 242 497 244 c 1
 497 296 l 1
 519 298 555 303 577 314 c 0
 612 330 636 351 636 372 c 0
 636 392 620 415 589 429 c 0
 558 443 528 446 490 446 c 0
 456 446 431.098 440.866 399 421 c 24
 377.081 407.435 356 373 356 373 c 1
 262 373 l 1
 270 412 289.186 445.378 328 475 c 0
 366 504 424 522 493 522 c 0
 568 522 619 510 666 480 c 0
 713 451 737 417 737 384 c 0
 737 361 726 338 704 315 c 0
 682 293 678 289 632 272 c 1
 673 267 686 255 717 232 c 0
 747 209 762 178 762 139 c 0
 762 103 737 66 687 34 c 0
 638 3 581 -9 494 -9 c 0
 417 -9 374.578 1.63184 330 30 c 0
 297 51 267 88 264 130 c 1
 357 129 l 1
EndSplineSet
EndChar
StartChar: afii10074
Encoding: 1080 1080 66
Width: 1024
VWidth: 0
Flags: HW
Fore
649 -13 m 1
 649 391 l 1
 643 381 l 1
 388 -12 l 1
 278 -12 l 1
 278 515 l 1
 375 515 l 1
 375 112 l 1
 381 125 l 1
 636 513 l 1
 746 513 l 1
 746 -13 l 5
 649 -13 l 1
EndSplineSet
EndChar
StartChar: afii10075
Encoding: 1081 1081 67
Width: 1024
VWidth: 0
Flags: HW
Fore
331 626 m 1
 393 681 l 1
 411 655 453 634 500 634 c 0
 558 634 597 655 621 683 c 1
 681 625 l 1
 619 572 579 558 500 558 c 0
 424 558 389 568 331 626 c 1
649 -13 m 1
 649 391 l 1
 643 381 l 1
 388 -12 l 1
 278 -12 l 1
 278 515 l 1
 375 515 l 1
 375 112 l 1
 381 125 l 1
 636 513 l 1
 746 513 l 1
 746 -13 l 1
 649 -13 l 1
EndSplineSet
EndChar
StartChar: afii10076
Encoding: 1082 1082 68
Width: 1024
Flags: HW
Fore
538 303 m 0
 504 180 375 153 373 152 c 1
 373 236 l 1
 450 260 462 312 490 365 c 0
 543 465 598 507 632 526 c 1
 730 526 l 17
 730 520 l 1
 696 494 560 384 538 303 c 0
537 320 m 1
 763 -9 l 1
 664 -9 l 1
 478 259 l 1
 537 320 l 1
374 -9 m 1
 281 -9 l 1
 281 520 l 1
 374 520 l 1
 374 -9 l 1
EndSplineSet
EndChar
StartChar: afii10077
Encoding: 1083 1083 69
Width: 1024
Flags: HW
Fore
228.095 -17.8057 m 1
 228.095 73.1826 l 1
 290 99 311.531 134.227 336.5 208 c 1
 359.051 272.999 362 309.5 359.743 511.806 c 1
 769.905 511.806 l 1
 769.905 -9.28711 l 1
 669.015 -9.28711 l 1
 669.015 420.884 l 1
 454.407 420.884 l 1
 451 238.5 425.5 160.5 383 87 c 8
 345.551 22.2357 290 0 228.095 -17.8057 c 1
EndSplineSet
EndChar
StartChar: afii10078
Encoding: 1084 1084 70
Width: 1024
Flags: HW
Fore
302.101 -12 m 1
 206.74 -12 l 1
 206.74 519.4 l 1
 326.601 519.4 l 1
 519.38 131.2 l 1
 527.58 131.2 l 1
 697.4 519.4 l 1
 817.26 519.4 l 1
 817.26 -12 l 1
 721.9 -12 l 1
 721.9 385.8 l 1
 716.98 385.8 l 1
 549.72 -9.90039 l 1
 497.24 -9.90039 l 1
 307.021 385.8 l 1
 302.101 385.8 l 1
 302.101 -12 l 1
EndSplineSet
EndChar
StartChar: afii10079
Encoding: 1085 1085 71
Width: 1024
Flags: HW
Fore
640.5 224 m 1
 383.5 224 l 1
 383.5 -12 l 1
 285.5 -12 l 1
 285.5 521 l 1
 383.5 521 l 1
 383.5 317 l 1
 640.5 317 l 1
 640.5 521 l 1
 738.5 521 l 1
 738.5 -12 l 1
 640.5 -12 l 1
 640.5 224 l 1
EndSplineSet
EndChar
StartChar: afii10080
Encoding: 1086 1086 72
Width: 1024
Flags: HW
Fore
228 266 m 0
 228 339.333 253.167 402 303.5 454 c 0
 353.833 506 420.333 532 503 532 c 0
 585.667 532 652.333 506 703 454 c 0
 753.667 402 779 339 779 265 c 0
 779 185.667 753.667 120 703 68 c 0
 652.333 16 585.667 -10 503 -10 c 0
 420.333 -10 353.833 16 303.5 68 c 0
 253.167 120 228 186 228 266 c 0
332 265 m 0
 332 201.667 349 153.5 383 120.5 c 0
 417 87.5 457 71 503 71 c 0
 549 71 589.167 87.5 623.5 120.5 c 0
 657.833 153.5 675 202 675 266 c 0
 675 326.667 657.833 372.667 623.5 404 c 0
 589.167 435.333 549 451 503 451 c 0
 457 451 417 435.333 383 404 c 0
 349 372.667 332 326.333 332 265 c 0
EndSplineSet
EndChar
StartChar: afii10081
Encoding: 1087 1087 73
Width: 1024
Flags: HW
Fore
639 420 m 1
 382 420 l 1
 382 -12 l 1
 284 -12 l 1
 284 513 l 1
 737 513 l 1
 737 -12 l 1
 639 -12 l 1
 639 420 l 1
EndSplineSet
EndChar
StartChar: afii10082
Encoding: 1088 1088 74
Width: 1024
Flags: HW
Fore
330 -116 m 1
 330 534 l 1
 428 534 l 1
 428 469 l 1
 472.667 511 520.333 532 571 532 c 0
 634.333 532 687.5 509.333 730.5 464 c 0
 773.5 418.667 795 359.333 795 286 c 0
 795 214 772.5 156.667 727.5 114 c 0
 682.5 71.3333 629.667 48.6667 569 46 c 1
 518.333 46 471.333 58.6667 428 84 c 1
 428 -116 l 1
 330 -116 l 1
569 127 m 1
 606.333 129.667 636 143.833 658 169.5 c 0
 680 195.167 691 234 691 286 c 0
 691 336.667 679.667 376.833 657 406.5 c 0
 634.333 436.167 605 451 569 451 c 0
 525.667 451 492.5 437.333 469.5 410 c 0
 446.5 382.667 432.667 360 428 342 c 1
 428 196 l 1
 438 170 455.833 152 481.5 142 c 0
 507.167 132 536.333 127 569 127 c 1
EndSplineSet
EndChar
StartChar: afii10083
Encoding: 1089 1089 75
Width: 1024
Flags: HW
Fore
233 260 m 0
 233 332 258.167 395.333 308.5 450 c 0
 358.833 504.667 424 532 504 532 c 0
 589.333 532 654.333 513 699 475 c 0
 743.667 437 768.667 390.667 774 336 c 1
 670 336 l 1
 662 378 645.167 407.667 619.5 425 c 0
 593.833 442.333 555.333 451 504 451 c 0
 459.333 451 420.333 436 387 406 c 0
 353.667 376 337 327 337 259 c 0
 337 197 354.333 150.167 389 118.5 c 0
 423.667 86.8333 463.333 71 508 71 c 0
 551.333 71 586.833 77.8333 614.5 91.5 c 0
 642.167 105.167 662.667 132 676 172 c 1
 784 172 l 1
 774.667 117.333 746.333 73.3333 699 40 c 0
 651.667 6.66667 588 -10 508 -10 c 0
 426.667 -10 360.5 17.3333 309.5 72 c 0
 258.5 126.667 233 189.333 233 260 c 0
EndSplineSet
EndChar
StartChar: afii10084
Encoding: 1090 1090 76
Width: 1024
Flags: HW
Fore
554 -12 m 5
 456 -12 l 5
 456 413 l 1
 221 413 l 1
 221 503 l 1
 791 503 l 1
 791 413 l 1
 554 413 l 1
 554 -12 l 5
EndSplineSet
EndChar
StartChar: afii10085
Encoding: 1091 1091 77
Width: 1024
Flags: HW
Fore
421 -20 m 1
 464 66 l 1
 266 534 l 1
 371 534 l 1
 521 180 l 1
 698 534 l 1
 810 534 l 1
 524 -36 l 1
 484.667 -116 407.333 -144 292 -120 c 1
 292 -34 l 1
 358 -55.3333 401 -50.6667 421 -20 c 1
EndSplineSet
EndChar
StartChar: afii10086
Encoding: 1092 1092 78
Width: 1024
Flags: HW
Fore
678 127 m 1
 707 130 732 143 752 168 c 0
 772 192 782 231 782 286 c 0
 782 339 771 380 750 408 c 0
 730 437 706 451 678 451 c 0
 640 451 610 437 590 409 c 0
 570 381 558 358 554 340 c 1
 554 193 l 1
 562 168 578 151 602 142 c 0
 625 132 650 127 678 127 c 1
464 72.6562 m 1
 436.07 55.1055 402.07 46 362 46 c 1
 300 49 249 71 209 113 c 0
 169 155 149 213 149 286 c 0
 149 347 166 404 200 455 c 0
 234 506 281 532 340 532 c 0
 384.469 532 425.2 513.309 464 477.733 c 1
 464 770 l 1
 554 770 l 1
 554 468 l 1
 592 511 634 532 680 532 c 0
 732 532 779 509 817 464 c 0
 855 419 875 359 875 286 c 0
 875 215 856 158 818 115 c 0
 780 72 733 49 678 46 c 1
 632 46 591 58 554 82 c 1
 554 -116 l 1
 464 -116 l 1
 464 72.6562 l 1
464 176.803 m 1
 464 344.583 l 1
 458.02 364.938 448.687 384.027 436 402 c 0
 412 434 380 451 342 451 c 0
 314 451 291 434 272 398 c 0
 252 364 242 326 242 286 c 0
 242 229 254 188 276 166 c 0
 298 142 326 130 362 127 c 1
 390 127 414 132 434 143 c 0
 446.765 150.021 456.678 161.115 464 176.803 c 1
EndSplineSet
EndChar
StartChar: afii10087
Encoding: 1093 1093 79
Width: 1024
Flags: HW
Fore
834 -12 m 1
 702 -12 l 1
 508 211 l 1
 332 -12 l 1
 210 -12 l 1
 444 284 l 1
 226 534 l 1
 358 534 l 1
 534 333 l 1
 684 534 l 1
 806 534 l 1
 599 257 l 1
 834 -12 l 1
EndSplineSet
EndChar
StartChar: afii10088
Encoding: 1094 1094 80
Width: 1024
Flags: HW
Fore
680 8 m 1
 276 8 l 1
 276 516 l 1
 375 516 l 1
 375 94 l 1
 639 94 l 1
 639 514 l 1
 738 514 l 1
 738 94 l 1
 773 94 l 1
 780 -31 l 1
 688 -31 l 1
 680 8 l 1
EndSplineSet
EndChar
StartChar: afii10089
Encoding: 1095 1095 81
Width: 1024
Flags: HW
Fore
628 518 m 1
 723 518 l 1
 723 2 l 1
 628 2 l 1
 628 206 l 1
 588 163 533 146 488 146 c 0
 454 146 410 155 374 176 c 0
 338 197 319 248 319 310 c 2
 319 518 l 1
 413 518 l 1
 413 319 l 2
 413 283 424 259 438 247 c 0
 453 235 480 230 511 230 c 0
 535 230 560 237 584 258 c 0
 607 280 617 282 628 335 c 1
 628 518 l 1
EndSplineSet
EndChar
StartChar: afii10090
Encoding: 1096 1096 82
Width: 1024
Flags: HW
Fore
464 105 m 1
 464 520 l 1
 560 520 l 1
 560 105 l 1
 705 105 l 1
 705 521 l 1
 804 521 l 1
 804 12 l 1
 220 12 l 1
 220 521 l 1
 319 521 l 1
 319 105 l 1
 464 105 l 1
EndSplineSet
EndChar
StartChar: afii10091
Encoding: 1097 1097 83
Width: 1024
Flags: HW
Fore
736.091 12 m 1
 211 12 l 1
 211 521 l 1
 310 521 l 1
 310 105 l 1
 455 105 l 1
 455 520 l 1
 551 520 l 1
 551 105 l 1
 696 105 l 1
 696 521 l 1
 795 521 l 1
 795 105 l 1
 829 105 l 1
 836 -26 l 1
 743 -26 l 1
 736.091 12 l 1
EndSplineSet
EndChar
StartChar: afii10092
Encoding: 1098 1098 84
Width: 1024
Flags: HW
Fore
762 154 m 1
 762 183 748 211 724 224 c 0
 694 238 686 240 616 240 c 2
 508 240 l 1
 508 62 l 1
 590 62 l 2
 664 62 704 71 728 90 c 0
 750 107 762 131 762 154 c 1
508 522 m 1
 508 316 l 1
 616 316 l 2
 704 316 740 309 768 290 c 0
 792 272 848 225 848 153 c 1
 848 106 828 63 790 33 c 0
 752 3 692 -12 592 -12 c 2
 420 -12 l 1
 420 431 l 1
 176 431 l 1
 176 522 l 1
 176 522 176 521 508 522 c 1
EndSplineSet
EndChar
StartChar: afii10093
Encoding: 1099 1099 85
Width: 1024
Flags: HW
Fore
796.75 -12 m 1
 698.75 -12 l 1
 698.75 521 l 1
 796.75 521 l 1
 796.75 -12 l 1
558.25 154 m 1
 558.25 183 545.25 211 520.25 224 c 0
 491.25 238 485.25 240 415.25 240 c 2
 314.25 240 l 1
 314.25 62 l 1
 404.25 62 l 2
 478.25 62 501.25 71 524.25 90 c 0
 547.25 107 558.25 131 558.25 154 c 1
644.25 153 m 1
 644.25 106 625.25 63 587.25 33 c 0
 549.25 3 490.25 -12 391.25 -12 c 2
 227.25 -12 l 1
 227.25 522 l 1
 314.25 522 l 17
 314.25 316 l 1
 415.25 316 l 2
 503.25 316 536.25 309 564.25 290 c 0
 589.25 272 644.25 225 644.25 153 c 1
EndSplineSet
EndChar
StartChar: afii10094
Encoding: 1100 1100 86
Width: 1024
Flags: HW
Fore
647.5 154 m 1
 647.5 183 634.5 211 609.5 224 c 0
 580.5 238 566.5 240 496.5 240 c 2
 379.5 240 l 1
 379.5 62 l 1
 469.5 62 l 2
 543.5 62 590.5 71 613.5 90 c 0
 636.5 107 647.5 131 647.5 154 c 1
733.5 153 m 1
 733.5 106 714.5 63 676.5 33 c 0
 638.5 3 571.5 -12 472.5 -12 c 2
 292.5 -12 l 1
 292.5 522 l 1
 379.5 522 l 17
 379.5 316 l 1
 496.5 316 l 2
 584.5 316 625.5 309 653.5 290 c 0
 678.5 272 733.5 225 733.5 153 c 1
EndSplineSet
EndChar
StartChar: afii10095
Encoding: 1101 1101 87
Width: 1024
Flags: HW
Fore
678 224 m 1
 338 224 l 1
 338 252 340 279 338 307 c 1
 677 307 l 1
 670 351 655 384 630 406 c 0
 597 436 558 451 513 451 c 0
 462 451 423 442 398 425 c 0
 384 416 372 403 364 386 c 1
 254 386 l 1
 266 420 288 449 318 475 c 0
 363 513 428 532 513 532 c 0
 593 532 658 505 708 450 c 0
 759 395 784 332 784 260 c 0
 784 189 758 127 708 72 c 0
 656 17 590 -10 509 -10 c 0
 429 -10 365 7 318 40 c 0
 287 62 264 88 250 119 c 1
 369 119 l 1
 394.884 84.4876 448.126 71 509 71 c 0
 554 71 593 87 628 118 c 0
 656 144 672 179 678 224 c 1
EndSplineSet
EndChar
StartChar: afii10096
Encoding: 1102 1102 88
Width: 1024
Flags: HW
Fore
518 265 m 0
 518 202 529 154 552 120 c 0
 575 88 601 71 632 71 c 0
 663 71 690 88 713 120 c 0
 736 154 747 202 747 266 c 0
 747 327 736 373 713 404 c 0
 690 435 663 451 632 451 c 0
 601 451 575 435 552 404 c 0
 529 373 518 326 518 265 c 0
421 315 m 1
 428 368 444 414 476 454 c 0
 516 506 564 532 637 532 c 0
 705 532 753 506 794 454 c 0
 834 402 850 339 850 265 c 0
 850 186 834 120 794 68 c 0
 753 16 705 -10 637 -10 c 0
 570 -10 516 16 476 68 c 0
 442 111 425 164 420 227 c 1
 290 227 l 1
 290 -12 l 1
 192 -12 l 1
 192 521 l 1
 290 521 l 1
 290 315 l 1
 421 315 l 1
EndSplineSet
EndChar
StartChar: afii10097
Encoding: 1103 1103 89
Width: 1024
Flags: HW
Fore
653.5 -5 m 1
 737.5 -5 l 1
 737.5 519 l 1
 533.5 519 l 2
 429.5 519 382.5 505 348.5 481 c 0
 314.5 456 295.5 407 295.5 364 c 0
 295.5 320 311.5 273 340.5 252 c 0
 368.5 231 400.5 215 448.5 210 c 1
 268.5 -5 l 1
 373.5 -5 l 1
 533.5 208 l 1
 653.5 208 l 1
 653.5 -5 l 1
378.5 363 m 0
 378.5 386 394.5 411 412.5 426 c 0
 431.5 440 463.5 448 533.5 448 c 2
 653.5 448 l 1
 653.5 278 l 1
 526.5 278 l 2
 465.5 278 431.5 286 412.5 300 c 0
 394.5 315 378.5 340 378.5 363 c 0
EndSplineSet
EndChar
StartChar: afii10071
Encoding: 1105 1105 90
Width: 1024
Flags: HW
Fore
330 581 m 1
 330 699 l 1
 448 699 l 1
 448 581 l 1
 330 581 l 1
578 581 m 1
 578 699 l 1
 696 699 l 1
 696 581 l 1
 578 581 l 1
233 260 m 0
 233 332 258.167 395.333 308.5 450 c 0
 358.833 504.667 424 532 504 532 c 0
 585.333 532 651 509.333 701 464 c 0
 751 418.667 776 352.667 776 266 c 1
 668 266 l 1
 337 266 l 1
 337 259 l 2
 337 197 354.333 150.167 389 118.5 c 0
 423.667 86.8333 463.333 71 508 71 c 0
 551.333 71 586.833 77.8333 614.5 91.5 c 0
 642.167 105.167 662.667 132 676 172 c 1
 784 172 l 1
 774.667 117.333 746.333 73.3333 699 40 c 0
 651.667 6.66667 588 -10 508 -10 c 0
 426.667 -10 360.5 17.3333 309.5 72 c 0
 258.5 126.667 233 189.333 233 260 c 0
504 451 m 0
 459.333 451 424.167 439.333 398.5 416 c 0
 372.833 392.667 355.667 367.333 347 340 c 1
 661 340 l 1
 653 374 636 401 610 421 c 0
 584 441 548.667 451 504 451 c 0
EndSplineSet
EndChar
StartChar: Euro
Encoding: 8364 8364 112
Width: 1024
VWidth: 1000
Flags: HW
Fore
331 241 m 1
 372 136 465 69 582 69 c 0
 712 69 805 145 826 267 c 1
 932 267 l 1
 907 91 780 -10 582 -10 c 0
 415 -10 278 93 227 241 c 1
 84 241 l 1
 91 298 l 1
 212 298 l 1
 205.84 333.418 202.66 374.619 210 410 c 1
 105 412 l 1
 112 469 l 1
 220 469 l 1
 264 625 410 738 582 738 c 0
 759 738 889 639 916 484 c 1
 810 484 l 1
 781 636 653 659 582 659 c 0
 456 659 358 585 323 469 c 1
 636 469 l 1
 629 412 l 1
 311 412 l 0
 300.286 337.005 302.748 362.698 314 298 c 1
 615 298 l 1
 608 241 l 1
 331 241 l 1
EndSplineSet
EndChar
StartChar: afii61289
Encoding: 8467 8467 91
Width: 1024
Flags: HW
Fore
773 151 m 25
469 257 m 1,1,2
 543 338 606 438 609 547 c 1,3,4
 611 604 613 684 545 684 c 1,5,6
 456 684 456 455 457 393 c 1,7,8
 457 351 461 303 469 257 c 1,1,2
398 189 m 1,9,10
 379 259 371 342 371 427 c 1,11,12
 372 520 385 761 546 762 c 1,13,14
 673 761 699 653 697 534 c 1,15,16
 691 393 595 263 495 161 c 1,17,18
 515 112 544 79 584 79 c 1,19,20
 631 79 661 116 717 245 c 1,21,-1
 721 245 l 1,22,-1
 774 151 l 1,23,24
 711 41 656 0 580 -9 c 1,25,26
 513 -5 465 36 432 99 c 1,27,28
 373 46 320 4 289 -23 c 1,29,30
 278 3 265 39 250 61 c 1,31,-1
 250 81 l 1,32,33
 284 100 340 138 398 189 c 1,9,10
EndSplineSet
EndChar
StartChar: uni222D
Encoding: 8749 8749 92
Width: 1024
Flags: HW
Fore
692 -96 m 0
 613 -96 569 -33 574 40 c 1
 640 40 l 1
 646 -9 659 -27 693 -27 c 0
 752 -27 767 5 768 84 c 1
 742 462 739 611 739 625 c 0
 738 743 795 818 893 818 c 0
 971 818 1022 758 1011 682 c 1
 945 682 l 1
 939 731 926 749 892 749 c 0
 862 749 848 739 835 719 c 0
 825 705 821 677 820 638 c 1
 854 110 849 108 849 94 c 0
 849 -22 791 -96 692 -96 c 0
413 -96 m 0
 335 -96 291 -33 295 40 c 1
 361 40 l 1
 368 -9 380 -27 414 -27 c 0
 472 -27 488 5 488 84 c 1
 464 462 460 611 460 625 c 0
 460 743 515 818 613 818 c 0
 691 818 742 758 732 682 c 1
 666 682 l 1
 659 731 647 749 612 749 c 0
 583 749 568 739 556 719 c 0
 547 705 542 677 541 638 c 1
 575 110 569 108 569 94 c 0
 569 -22 511 -96 413 -96 c 0
130 -96 m 0
 51 -96 7 -33 12 40 c 1
 78 40 l 1
 84 -9 97 -27 131 -27 c 0
 189 -27 205 5 206 84 c 1
 180 462 177 611 177 625 c 0
 176 743 232 818 331 818 c 0
 409 818 460 758 448 682 c 1
 383 682 l 1
 377 731 363 749 330 749 c 0
 300 749 286 739 272 719 c 0
 263 705 259 677 258 638 c 1
 292 110 287 108 287 94 c 0
 287 -22 228 -96 130 -96 c 0
EndSplineSet
EndChar
StartChar: uni2243
Encoding: 8771 8771 93
Width: 1024
Flags: HW
Fore
682 394 m 1
 628 394 595 408 552 435 c 128
 509 462 474 487 440 509 c 0
 407 531 371 551 334 551 c 1
 301 548 273 529 249 513 c 0
 225 496 199 457 171 394 c 1
 111 428 l 1
 148 503 184 553 219 576 c 0
 254 600 292 613 334 617 c 1
 376 617 420 603 463 576 c 0
 505 549 542 525 575 502 c 0
 609 480 644 461 682 461 c 1
 715 464 741 482 765 498 c 0
 789 515 815 554 842 617 c 1
 904 583 l 1
 867 508 831 458 797 435 c 0
 762 411 724 398 682 394 c 1
890 284 m 1
 890 211 l 1
 111 211 l 1
 111 284 l 1
 890 284 l 1
EndSplineSet
EndChar
StartChar: uni2272
Encoding: 8818 8818 94
Width: 1000
VWidth: 1000
Flags: HW
Fore
684 18 m 1
 630 18 597 32 554 59 c 128
 511 86 476 111 442 133 c 0
 409 155 373 175 336 175 c 1
 303 172 275 153 251 137 c 0
 227 120 201 81 173 18 c 1
 113 52 l 1
 150 127 186 177 221 200 c 0
 256 224 294 237 336 241 c 1
 378 241 422 227 465 200 c 0
 507 173 544 149 577 126 c 0
 611 104 646 85 684 85 c 1
 717 88 743 106 767 122 c 0
 791 139 817 178 844 241 c 1
 906 207 l 1
 869 132 833 82 799 59 c 0
 764 35 726 22 684 18 c 1
863 822 m 1
 899 773 l 1
 219 540 l 1
 899 307 l 1
 863 258 l 1
 134 510 l 1
 100.667 530 100.667 550 134 570 c 1
 863 822 l 1
EndSplineSet
EndChar
StartChar: uni2273
Encoding: 8819 8819 95
Width: 1000
VWidth: 1000
Flags: HW
Fore
684 18 m 1
 630 18 597 32 554 59 c 128
 511 86 476 111 442 133 c 0
 409 155 373 175 336 175 c 1
 303 172 275 153 251 137 c 0
 227 120 201 81 173 18 c 1
 113 52 l 1
 150 127 186 177 221 200 c 0
 256 224 294 237 336 241 c 1
 378 241 422 227 465 200 c 0
 507 173 544 149 577 126 c 0
 611 104 646 85 684 85 c 1
 717 88 743 106 767 122 c 0
 791 139 817 178 844 241 c 1
 906 207 l 1
 869 132 833 82 799 59 c 0
 764 35 726 22 684 18 c 1
170 822 m 1
 899 570 l 1
 932.333 550 932.333 530 899 510 c 1
 170 258 l 1
 134 307 l 1
 814 540 l 1
 134 773 l 1
 170 822 l 1
EndSplineSet
EndChar
StartChar: uni25A2
Encoding: 9634 9634 96
Width: 1000
VWidth: 1000
Flags: HW
Fore
132 823 m 2
 866 823 l 2
 932 823 965 780 965 725 c 1
 965 -15 l 2
 965 -70 926 -112 869 -112 c 2
 132 -112 l 2
 73 -112 35 -70 35 -15 c 2
 35 725 l 2
 35 784 60 823 132 823 c 2
164 784 m 2
 89 784 74 761 74 687 c 2
 74 17 l 2
 74 -49 110 -72 164 -72 c 2
 837 -72 l 2
 901 -72 923 -35 923 17 c 2
 923 692 l 2
 923 752 902 784 834 784 c 2
 164 784 l 2
EndSplineSet
EndChar
StartChar: uni2661
Encoding: 9825 9825 97
Width: 1000
VWidth: 1000
Flags: HW
Fore
516 539 m 17
 540 581 570 647 660 647 c 0
 742 647 809 547 810 434 c 0
 810 249 561 102 500 31 c 1
 438 102 190 249 190 434 c 0
 191 547 253 648 339 648 c 0
 429 648 459 581 482 539 c 1
 516 539 l 17
500 572 m 1
 464 649 409 677 340 677 c 0
 229 677 156 557 156 440 c 16
 156 235 412 74 496 -6 c 1
 504 -6 l 1
 588 74 844 235 844 440 c 8
 844 557 771 677 660 677 c 0
 591 677 535 649 500 572 c 1
EndSplineSet
EndChar
StartChar: uni2662
Encoding: 9826 9826 98
Width: 1000
VWidth: 1000
Flags: HW
Fore
195.884 341 m 1
 500 772.682 l 1
 804.116 341 l 1
 500 -90.6817 l 1
 195.884 341 l 1
500 -31.3094 m 1
 761.887 341 l 1
 500 713.309 l 1
 238.113 341 l 1
 500 -31.3094 l 1
EndSplineSet
EndChar
StartChar: uni2664
Encoding: 9828 9828 99
Width: 1000
VWidth: 1000
Flags: HW
Fore
498 725 m 1
 434 687 385 639 327 579 c 8
 277.45 527.742 239 478 217 433 c 0
 200.678 399.614 195 388 195 336 c 0
 195 244 244 178 310 161 c 1
 313 161 l 0
 356 161 387 170 421 206 c 1
 429 216 434 221 434 221 c 1
 446 211 473 190 473 190 c 1
 427.718 117.815 380.183 52.7676 329 -5 c 1
 330 -7 l 1
 373 1.33301 432.062 11.9141 498 12 c 24
 565.488 12.0879 627 1.33301 670 -7 c 1
 671 -5 l 1
 626.216 40.5254 574.3 111.896 527 190 c 1
 527 190 554 211 566 221 c 1
 566 221 571 216 579 206 c 1
 613 170 644 161 687 161 c 0
 690 161 l 1
 756 178 805 244 805 336 c 0
 805 377 793 407 782 430 c 0
 759.61 476.815 723.041 527.233 673 579 c 16
 615 639 562 687 498 725 c 1
498 765 m 1
 568 726 628.285 675.219 698 603 c 24
 751.577 547.498 790.732 495.893 817 445 c 0
 833 414 843 370 843 344 c 0
 843 210.985 763 130 685 129 c 0
 656.002 128.628 625 133 600 153 c 0
 586 164 574 176 565 185 c 1
 563 183 l 1
 607.481 105.917 649 59 710 -6 c 1
 703.559 -16.2246 697.659 -26.9932 691 -37 c 1
 672.25 -30.292 573.757 -14.9102 497.999 -15 c 24
 423.792 -15.0889 327.75 -30.292 309 -37 c 1
 302.341 -26.9932 296.441 -16.2246 290 -6 c 1
 343.049 53.2109 395.499 114.62 437 183 c 1
 435 185 l 1
 426 176 414 164 400 153 c 0
 375 133 343.998 128.628 315 129 c 0
 237 130 157 210.985 157 344 c 0
 157 370 169 411 184 444 c 0
 208 496 248.842 546.988 302 603 c 24
 370.268 674.933 428 726 498 765 c 1
EndSplineSet
EndChar
StartChar: uni2667
Encoding: 9831 9831 100
Width: 1000
VWidth: 1000
Flags: HW
Fore
652 -12 m 1
 596 45 550 111 513 187 c 1
 545 215 l 1
 581 181 611 144 680 144 c 0
 729 144 827 221 827 306 c 16
 827 352 807 402 762 428 c 0
 730 446 708 452 679 452 c 0
 662 452 647 450 626 439 c 1
 609 470 l 17
 649 519 658 548 658 601 c 0
 658 677 600 745 498 745 c 0
 395 745 336 679 336 593 c 0
 336 515 390 483 390 483 c 1
 375 449 l 1
 375 449 358 455 330 454 c 0
 289 453 270 457 229 432 c 0
 186 404 163 365 163 312 c 16
 163 218 247 147 319 147 c 0
 382 147 402 170 429 203 c 1
 433 209 441 218 441 218 c 1
 481 188 l 1
 474 178 473 175 462 159 c 1
 423 99 376 36 333 -11 c 1
 332 -11 l 1
 332 -11 434 6 499 5 c 24
 559 4 572 2 652 -12 c 1
405 143 m 8
 378 121 347 118 319 118 c 0
 254 118 194 156 156 218 c 0
 141 243 133 274 133 307 c 0
 133 359 156 422 215 456 c 0
 250 477 273 478 313 482 c 0
 333 484 353 480 353 480 c 1
 320 504 305 537 305 604 c 0
 305 711 391 774 497 774 c 128
 603 774 690 711 691 604 c 0
 691 562 677 502 642 471 c 1
 656 477 664 479 678 479 c 16
 715 479 741 473 778 452 c 0
 835 419 859 358 859 305 c 0
 859 273 850 242 835 217 c 0
 797 154 736 116 671 116 c 0
 643 116 612 127 590 142 c 0
 572 153 555 169 544 181 c 1
 542 179 l 1
 587 106 614 68 693 -13 c 1
 691 -17 l 1
 676 -41 l 1
 674 -44 l 1
 671 -43 l 1
 667 -42 567 -23 500 -23 c 24
 426 -23 380 -29 312 -45 c 1
 293 -13 l 1
 352 51 396 109 445 179 c 1
 443 181 l 1
 430 166 423 156 405 143 c 8
EndSplineSet
EndChar
StartChar: uni3033
Encoding: 12339 12339 101
Width: 1024
Flags: HW
Fore
261 -145 m 1
 261 -131 262 -116 264 -102 c 0
 266 -74 306 10 384 150 c 0
 441 254 564 519 586 654 c 0
 595 706 575 720 568 736 c 1
 575 768 555 785 586 788 c 1
 645 775 752 723 752 698 c 0
 752 686 725 665 716 648 c 1
 666 508 550 263 478 140 c 1
 402 -2 363 -84 360 -106 c 0
 358 -119 357 -132 357 -144 c 1
 357 -152 261 -138 261 -145 c 1
EndSplineSet
EndChar
StartChar: uni3034
Encoding: 12340 12340 102
Width: 1024
Flags: HW
Fore
718 344 m 1
 766 307 806 268 839 226 c 1
 779 163 l 1
 749 217 710 260 663 291 c 1
 718 344 l 1
819 445 m 1
 866 408 907 369 940 327 c 1
 880 264 l 1
 850 319 811 361 764 392 c 1
 819 445 l 1
261 -145 m 1
 261 -131 262 -116 264 -102 c 0
 266 -74 306 10 384 150 c 0
 441 254 564 519 586 654 c 0
 595 706 575 720 568 736 c 1
 575 768 555 785 586 788 c 1
 645 775 752 723 752 698 c 0
 752 686 725 665 716 648 c 1
 666 508 550 263 478 140 c 1
 402 -2 363 -84 360 -106 c 0
 358 -119 357 -132 357 -144 c 1
 357 -152 261 -138 261 -145 c 1
EndSplineSet
EndChar
StartChar: uni3035
Encoding: 12341 12341 103
Width: 1024
Flags: HW
Fore
357 880 m 1
 357 872 358 863 358 856 c 0
 360 836 399 760 474 627 c 2
 762 98 l 1
 762 71 l 1
 740 54 694 27 670 -11 c 1
 566 251 473 452 390 593 c 0
 308 735 265 818 263 843 c 0
 262 855 261 867 261 879 c 1
 357 880 l 1
EndSplineSet
EndChar
StartChar: uni3094
Encoding: 12436 12436 104
Width: 1024
Flags: HW
Fore
723 697 m 1
 772 651 814 604 849 557 c 1
 779 508 l 1
 750 562 714 610 667 649 c 1
 723 697 l 1
824 779 m 1
 879 737 924 695 963 651 c 1
 898 598 l 1
 865 649 823 692 774 727 c 1
 824 779 l 1
254 819 m 1
 369 781 485 760 606 752 c 1
 610 744 l 1
 604 723 598 693 593 657 c 1
 456 676 334 700 226 732 c 1
 254 819 l 1
104 496 m 1
 425 552 426 552 493 552 c 0
 632 552 703 482 712 336 c 1
 712 134 587 -5 322 -97 c 1
 307 -61 290 -32 269 -7 c 1
 269 3 l 1
 484 35 616 157 616 329 c 0
 616 422 568 470 475 471 c 0
 410 471 343 462 146 393 c 1
 135 426 121 458 101 486 c 1
 104 496 l 1
EndSplineSet
EndChar
StartChar: uni3095
Encoding: 12437 12437 105
Width: 1024
Flags: HW
Fore
187 357 m 1
 224 360 272 365 329 371 c 1
 340 416 355 493 356 515 c 0
 356 523 354 529 352 534 c 1
 352 541 358 545 367 546 c 1
 442 531 l 1
 446 530 450 528 451 524 c 0
 450 520 446 518 443 514 c 0
 427 503 l 1
 400 380 l 1
 414 382 436 383 453 383 c 0
 526 383 577 340 583 265 c 0
 585 234 587 210 587 187 c 0
 587 40 538 -62 459 -69 c 1
 436 -69 434 -68 356 5 c 1
 354 6 354 7 356 8 c 1
 380 29 394 46 401 61 c 1
 406 61 l 1
 436 24 451 12 460 12 c 0
 489 10 515 88 518 217 c 1
 517 301 506 318 442 318 c 0
 427 318 403 316 383 313 c 1
 350 186 314 97 240 -69 c 1
 239 -72 237 -72 236 -70 c 1
 215 -52 196 -39 172 -29 c 1
 172 -19 l 1
 237 82 279 184 310 303 c 1
 274 297 230 289 193 282 c 1
 190 282 189 282 189 285 c 1
 188 315 185 335 181 350 c 1
 182 353 187 357 187 357 c 1
665 436 m 1
 751 333 840 190 840 156 c 1
 840 154 840 154 839 154 c 1
 769 115 l 1
 767 114 766 114 766 117 c 1
 720 248 666 327 610 389 c 1
 608 390 608 391 610 392 c 1
 662 436 l 1
 663 438 664 438 665 436 c 1
EndSplineSet
EndChar
StartChar: uni3096
Encoding: 12438 12438 106
Width: 1024
Flags: HW
Fore
257 5 m 1
 207 2 169 87 169 243 c 0
 169 299 169 309 181 507 c 0
 181 519 179 528 178 531 c 1
 179 539 185 544 194 545 c 1
 269 527 l 0
 275 526 281 525 281 519 c 0
 281 515 277 513 273 509 c 1
 257 499 l 1
 249 418 244 366 243 275 c 1
 243 90 265 101 265 100 c 1
 267 100 278 112 291 136 c 1
 291 139 296 138 297 137 c 1
 316 117 328 95 348 81 c 1
 313 35 286 8 257 5 c 1
566 573 m 1
 565 583 570 586 582 585 c 1
 657 578 l 0
 662 578 667 574 667 569 c 0
 667 566 665 563 661 559 c 0
 646 547 l 1
 649 494 650 466 651 420 c 1
 675 421 720 427 752 438 c 1
 760 418 766 395 774 375 c 1
 738 365 697 357 656 352 c 1
 654 326 657 250 657 237 c 0
 657 62 608 -11 476 -88 c 1
 474 -89 473 -89 472 -87 c 1
 463 -67 447 -46 430 -23 c 1
 432 -12 l 1
 550 28 586 88 586 250 c 0
 587 301 585 328 584 346 c 1
 512 345 448 339 374 339 c 1
 374 365 371 388 368 413 c 1
 410 409 455 406 495 406 c 1
 525 406 555 408 578 410 c 1
 576 507 571 560 566 573 c 1
EndSplineSet
EndChar
StartChar: uni30F7
Encoding: 12535 12535 105
Width: 1024
Flags: HW
Fore
780.5 766 m 1
 823.5 733 860.5 695 891.5 654 c 1
 832.5 603 l 1
 806.5 651 773.5 691 732.5 722 c 1
 780.5 766 l 1
874.5 840 m 1
 922.5 806 962.5 772 993.5 736 c 1
 934.5 685 l 1
 908.5 727 872.5 764 826.5 796 c 1
 874.5 840 l 1
61.5 316 m 1
 61.5 662 l 1
 653.5 662 l 1
 666.5 679 l 2
 669.5 682 672.5 682 675.5 679 c 0
 705.5 658 737.5 636 771.5 611 c 1
 784.5 599 783.5 589 767.5 581 c 2
 744.5 569 l 1
 738.5 504 729.5 444 717.5 388 c 0
 706.5 333 679.5 274 637.5 210 c 0
 594.5 148 540.5 96 475.5 56 c 0
 410.5 17 325.5 -16 220.5 -43 c 1
 211.5 -12 196.5 19 173.5 50 c 1
 173.5 57 l 1
 264.5 68 339.5 89 399.5 118 c 0
 460.5 147 510.5 190 549.5 246 c 0
 588.5 303 613.5 357 624.5 410 c 0
 635.5 462 642.5 519 645.5 581 c 1
 156.5 581 l 1
 156.5 316 l 1
 61.5 316 l 1
EndSplineSet
EndChar
StartChar: uni30F8
Encoding: 12536 12536 106
Width: 1024
Flags: HW
Fore
765 791 m 1
 807 756 842 716 870 674 c 1
 809 626 l 1
 785 675 754 717 715 750 c 1
 765 791 l 1
867 843 m 1
 913 807 952 771 981 733 c 1
 919 685 l 1
 895 728 861 767 817 802 c 1
 867 843 l 1
91 290 m 1
 274 290 l 1
 274 517 l 1
 179 517 l 1
 179 602 l 1
 534 602 l 1
 534 728 l 2
 534 751 532 766 528 774 c 1
 526 786 531 791 542 790 c 2
 646 783 l 1
 660 778 661 772 648 763 c 1
 629 747 l 1
 629 602 l 1
 809 602 l 1
 809 517 l 1
 629 517 l 1
 629 290 l 1
 943 290 l 1
 943 205 l 1
 629 205 l 1
 629 -50 l 1
 534 -50 l 1
 534 205 l 1
 91 205 l 1
 91 290 l 1
367 290 m 1
 534 290 l 1
 534 517 l 1
 367 517 l 1
 367 290 l 1
EndSplineSet
EndChar
StartChar: uni30F9
Encoding: 12537 12537 107
Width: 1024
Flags: HW
Fore
778 779 m 1
 823 748 862 712 895 672 c 1
 838 618 l 1
 810 665 775 703 733 732 c 1
 778 779 l 1
859 851 m 1
 909 819 951 787 984 753 c 1
 927 699 l 1
 899 740 861 775 814 804 c 1
 859 851 l 1
72 151 m 1
 453 151 l 1
 453 431 l 2
 453 454 451 469 447 477 c 1
 446 488 450 493 460 493 c 2
 559 486 l 1
 572 483 574 477 565 468 c 2
 546 452 l 1
 546 399 l 1
 636 446 696 495 726 546 c 1
 206 546 l 1
 201 574 193 599 182 622 c 1
 182 631 l 1
 742 631 l 1
 754 647 l 2
 757 651 760 650 763 647 c 0
 771 642 779 636 787 631 c 1
 798 631 l 1
 798 623 l 1
 821 608 843 592 865 576 c 1
 878 564 877 554 861 546 c 2
 836 533 l 1
 832 534 l 1
 797 472 721 400 604 317 c 1
 590 346 571 370 546 389 c 1
 546 151 l 1
 924 151 l 1
 924 66 l 1
 72 66 l 1
 72 151 l 1
EndSplineSet
EndChar
StartChar: uni30FA
Encoding: 12538 12538 108
Width: 1024
Flags: HW
Fore
786 770 m 1
 829 737 866 699 897 658 c 1
 838 607 l 1
 812 655 779 695 738 726 c 1
 786 770 l 1
880 839 m 1
 928 805 968 771 999 735 c 1
 940 684 l 1
 914 726 878 763 832 795 c 1
 880 839 l 1
72 689 m 1
 645 689 l 1
 659 707 l 2
 661 710 664 710 668 707 c 0
 699 684 730 661 762 636 c 1
 775 624 774 614 758 606 c 2
 735 594 l 1
 727 515 716 449 701 396 c 0
 686 342 654 282 605 217 c 0
 555 152 502 99 445 60 c 128
 388 21 312 -16 217 -50 c 1
 208 -19 191 11 167 39 c 1
 167 50 l 1
 249 67 318 91 373 123 c 128
 428 155 475 196 514 246 c 0
 552 297 580 345 597 392 c 1
 108 392 l 1
 108 473 l 1
 618 473 l 1
 625 514 630 559 634 608 c 1
 72 608 l 1
 72 689 l 1
EndSplineSet
EndChar
StartChar: uni33CB
Encoding: 13259 13259 109
Width: 1024
Flags: HW
Fore
463 -12 m 1
 464 342 l 1
 194 342 l 1
 194 -12 l 1
 108 -12 l 1
 108 750 l 1
 194 750 l 1
 194 432 l 1
 464 432 l 1
 463 750 l 1
 627 750 l 2
 832 750 916 691 916 546 c 128
 916 401 832 342 627 342 c 2
 549 342 l 1
 549 -12 l 1
 463 -12 l 1
825 546 m 0
 825 634 773 660 627 660 c 2
 549 660 l 1
 549 432 l 1
 627 432 l 2
 778 432 825 459 825 546 c 0
EndSplineSet
EndChar
StartChar: uniFF02
Encoding: 65282 65282 110
Width: 1024
VWidth: 1000
Flags: HW
Fore
406 603 m 1
 374 803 l 1
 485 803 l 1
 454 603 l 1
 406 603 l 1
570 603 m 1
 539 803 l 1
 650 803 l 1
 618 603 l 1
 570 603 l 1
EndSplineSet
EndChar
StartChar: uniFF07
Encoding: 65287 65287 111
Width: 1024
VWidth: 1000
Flags: HW
Fore
487.424 597.648 m 1
 455.68 798.352 l 1
 568.32 798.352 l 1
 536.576 597.648 l 1
 487.424 597.648 l 1
EndSplineSet
EndChar
StartChar: uni3095.vert
Encoding: 65537 -1 113
Width: 1024
Flags: HW
Fore
298 560 m 1
 335 563 383 567 439 573 c 1
 451 618 466 695 467 718 c 0
 467 726 465 732 463 736 c 1
 463 743 469 748 477 749 c 1
 553 734 l 1
 557 733 560 731 561 727 c 0
 560 723 557 721 554 717 c 0
 538 706 l 1
 511 583 l 1
 524 585 547 586 563 586 c 0
 637 586 687 543 693 468 c 0
 695 437 697 413 697 390 c 0
 697 243 648 140 569 134 c 1
 547 134 545 135 467 208 c 1
 465 209 465 210 467 211 c 1
 490 231 505 249 512 264 c 1
 516 264 l 1
 547 226 561 215 570 215 c 0
 600 213 626 291 629 420 c 1
 628 504 616 521 553 521 c 0
 538 521 514 519 494 516 c 1
 461 389 429 300 354 134 c 1
 353 131 351 131 350 133 c 1
 330 151 310 164 287 174 c 1
 287 183 l 1
 351 285 389 387 421 506 c 1
 385 500 341 492 303 484 c 1
 301 484 300 484 300 487 c 1
 299 518 296 538 292 553 c 1
 293 556 298 560 298 560 c 1
775 639 m 1
 861 536 950 393 950 358 c 1
 950 356 950 356 949 356 c 1
 880 317 l 1
 878 316 877 316 877 319 c 1
 830 451 776 529 721 592 c 1
 719 593 719 594 721 595 c 1
 772 639 l 1
 773 641 774 641 775 639 c 1
EndSplineSet
EndChar
StartChar: uni3096.vert
Encoding: 65538 -1 114
Width: 1024
Flags: HW
Fore
415 157 m 1
 365 154 327 239 327 394 c 0
 327 451 327 461 339 658 c 0
 339 671 337 680 336 683 c 1
 337 690 343 695 352 696 c 1
 427 679 l 0
 433 678 438 677 438 671 c 0
 438 667 435 665 431 660 c 1
 415 650 l 1
 407 569 401 517 400 427 c 1
 400 242 423 253 423 252 c 1
 425 252 436 263 449 288 c 1
 449 291 454 290 455 289 c 1
 471 268 487 250 504 233 c 1
 506 232 l 1
 471 186 443 160 415 157 c 1
724 725 m 1
 723 734 728 737 739 736 c 1
 815 729 l 0
 820 729 824 726 824 721 c 0
 824 718 822 715 819 711 c 0
 804 698 l 1
 807 645 808 617 809 571 c 1
 835 571 872 580 907 589 c 1
 909 590 l 1
 910 588 l 1
 931 529 l 1
 932 526 l 1
 929 525 l 1
 893 517 854 508 814 504 c 1
 811 477 815 401 815 388 c 0
 815 214 766 140 634 63 c 1
 632 62 631 62 630 65 c 1
 621 85 605 105 588 129 c 1
 588 137 l 1
 588 139 589 139 590 139 c 1
 708 179 743 240 743 401 c 0
 743 453 743 479 741 498 c 1
 670 497 606 490 531 490 c 1
 531 516 528 540 525 564 c 1
 567 560 612 557 652 557 c 1
 683 557 713 559 736 561 c 1
 735 658 729 712 724 725 c 1
EndSplineSet
EndChar
